<svg xmlns="http://www.w3.org/2000/svg" viewBox="0 0 194.97 188.31"><defs><style>.cls-1{fill:#00b8b5;stroke:#00b8b5;stroke-width:4.3px;}.cls-1,.cls-3,.cls-4,.cls-5{stroke-linecap:round;stroke-linejoin:round;}.cls-2{fill:#fff;}.cls-3,.cls-4{fill:#f26739;}.cls-3,.cls-4,.cls-5{stroke:#f26935;}.cls-3{stroke-width:0.93px;}.cls-4{stroke-width:1.86px;}.cls-5{fill:#f26738;stroke-width:3px;}</style></defs><title>icon-home-94</title><g id="Layer_1" data-name="Layer 1"><path class="cls-1" d="M146.18,178.07,98.79,153.44a5.13,5.13,0,0,0-4.77,0L46.86,178.53a5.13,5.13,0,0,1-7.47-5.37l8.79-52.68a5.13,5.13,0,0,0-1.5-4.53L8.27,78.83a5.13,5.13,0,0,1,2.8-8.76l52.82-7.92a5.13,5.13,0,0,0,3.85-2.82l23.42-48a5.13,5.13,0,0,1,9.2,0l23.85,47.79a5.13,5.13,0,0,0,3.87,2.79L181,69.3A5.13,5.13,0,0,1,183.86,78l-38.08,37.45a5.13,5.13,0,0,0-1.45,4.55l9.27,52.6A5.13,5.13,0,0,1,146.18,178.07Z"/><path class="cls-2" d="M91.27,99.55q0,4-.35,7.75a51.46,51.46,0,0,1-1.16,7.15,35.67,35.67,0,0,1-2.05,6.18,19.16,19.16,0,0,1-3,4.87,13,13,0,0,1-4.12,3.19,12,12,0,0,1-5.32,1.14q-.64,0-1.72-.11a14.58,14.58,0,0,1-2.41-.49,14.22,14.22,0,0,1-2.74-1.12,10.35,10.35,0,0,1-2.65-2,12.86,12.86,0,0,1-2.18-3.21,15.05,15.05,0,0,1-1.33-4.65l6.76-1.08a12.35,12.35,0,0,0,1.38,4.57,7.84,7.84,0,0,0,2,2.39,4.8,4.8,0,0,0,2,.91,9.4,9.4,0,0,0,1.25.15,5.63,5.63,0,0,0,1.81-.35,6,6,0,0,0,2.07-1.33,11.36,11.36,0,0,0,2.05-2.76,20.91,20.91,0,0,0,1.79-4.63,47.49,47.49,0,0,0,1.27-6.92,83.72,83.72,0,0,0,.48-9.69,50,50,0,0,0-.8-9.54,27.53,27.53,0,0,0-2.15-6.81A11.52,11.52,0,0,0,79,79a5.89,5.89,0,0,0-3.66-1.36,5.69,5.69,0,0,0-2.87.82A8.09,8.09,0,0,0,69.92,81a14.27,14.27,0,0,0-1.87,4.31,23.83,23.83,0,0,0-.71,6.2,18.29,18.29,0,0,0,.21,2.61A19.86,19.86,0,0,0,68.18,97a17.65,17.65,0,0,0,1.08,2.76,11.26,11.26,0,0,0,1.53,2.35,7,7,0,0,0,2,1.64,5.29,5.29,0,0,0,2.56.62A6.47,6.47,0,0,0,79.51,102,11.44,11.44,0,0,0,81,99.83a17.7,17.7,0,0,0,1.34-3.32,29.31,29.31,0,0,0,1-4.63,47.44,47.44,0,0,0,.35-6.18l2.91,8.88a26.22,26.22,0,0,1-1,4.68,22.1,22.1,0,0,1-1.47,3.58,15.59,15.59,0,0,1-1.75,2.67,13.27,13.27,0,0,1-1.87,1.87,10.7,10.7,0,0,1-4.7,2.31,4.49,4.49,0,0,1-.8.07h-.8a12.17,12.17,0,0,1-4.93-1.06,12.33,12.33,0,0,1-4.35-3.27,16.78,16.78,0,0,1-3.1-5.56,24.24,24.24,0,0,1-1.18-8,27.44,27.44,0,0,1,1-7.73,18.51,18.51,0,0,1,2.95-6,13.55,13.55,0,0,1,4.65-3.94,13.29,13.29,0,0,1,6.16-1.4,12.09,12.09,0,0,1,6.87,1.94,15.11,15.11,0,0,1,4.83,5.45,30,30,0,0,1,2.93,8.46A65,65,0,0,1,91.27,99.55Z"/><path class="cls-2" d="M123.52,107.42H95.38l5.34-31.36,6.91.63-6.42,28.67L100,102.31h23.48Zm-2-35.09v56.48h-7.09V72.33Z"/><path class="cls-2" d="M137.19,82.61a9.4,9.4,0,0,1-.4,2.79,8,8,0,0,1-1.09,2.27,5.51,5.51,0,0,1-1.58,1.52,3.49,3.49,0,0,1-1.87.55,3.54,3.54,0,0,1-1.88-.55,5.45,5.45,0,0,1-1.59-1.52,8,8,0,0,1-1.09-2.27,9.38,9.38,0,0,1-.4-2.79q0-3.68,1.25-5.41a4.28,4.28,0,0,1,3.71-1.73A4.23,4.23,0,0,1,136,77.2,9.72,9.72,0,0,1,137.19,82.61Zm-2.76,0a19,19,0,0,0-.13-2.43,6,6,0,0,0-.4-1.61,2.06,2.06,0,0,0-.69-.9,1.65,1.65,0,0,0-1-.28,1.53,1.53,0,0,0-.92.29,2.17,2.17,0,0,0-.67.95,6.87,6.87,0,0,0-.41,1.69,19,19,0,0,0-.14,2.51,12.46,12.46,0,0,0,.14,1.93,7,7,0,0,0,.42,1.59,3.28,3.28,0,0,0,.69,1.09,1.2,1.2,0,0,0,1.81,0,3.39,3.39,0,0,0,.69-1.13,8,8,0,0,0,.44-1.67A12.67,12.67,0,0,0,134.42,82.61ZM134,100l-2.35-.37L143.06,74l2.59.85ZM150,92.28a9.6,9.6,0,0,1-.4,2.82,8,8,0,0,1-1.09,2.29,5.44,5.44,0,0,1-1.59,1.52,3.55,3.55,0,0,1-1.88.56,3.49,3.49,0,0,1-1.87-.56,5.49,5.49,0,0,1-1.58-1.52,8,8,0,0,1-1.09-2.29,9.59,9.59,0,0,1-.4-2.82,9.26,9.26,0,0,1,1.25-5.39,4.89,4.89,0,0,1,7.45,0A9.59,9.59,0,0,1,150,92.28Zm-2.76,0a18.82,18.82,0,0,0-.13-2.41,5.61,5.61,0,0,0-.41-1.6,2,2,0,0,0-.7-.88,1.7,1.7,0,0,0-1-.27,1.52,1.52,0,0,0-.91.28,2.13,2.13,0,0,0-.66.92,6.67,6.67,0,0,0-.41,1.67,18.89,18.89,0,0,0-.14,2.52,12.82,12.82,0,0,0,.14,2,7,7,0,0,0,.42,1.6,3.28,3.28,0,0,0,.67,1.08,1.23,1.23,0,0,0,.89.39,1.27,1.27,0,0,0,.91-.41,3.27,3.27,0,0,0,.7-1.13,8.06,8.06,0,0,0,.44-1.68A13,13,0,0,0,147.26,92.28Z"/><polygon class="cls-3" points="163.64 35.85 165.03 36.21 166.11 35.27 166.2 36.7 167.43 37.44 166.09 37.97 165.77 39.36 164.86 38.26 163.43 38.38 164.2 37.17 163.64 35.85"/><polygon class="cls-3" points="157.26 16.63 158.65 16.99 159.73 16.05 159.82 17.48 161.05 18.22 159.72 18.75 159.4 20.14 158.48 19.04 157.05 19.16 157.82 17.95 157.26 16.63"/><polygon class="cls-4" points="145.16 25.79 147.94 26.51 150.11 24.62 150.29 27.49 152.75 28.97 150.08 30.02 149.43 32.82 147.61 30.61 144.74 30.86 146.29 28.43 145.16 25.79"/><polygon class="cls-5" points="142.11 49.31 146.68 48.5 148.6 44.28 150.78 48.37 155.39 48.9 152.17 52.24 153.1 56.78 148.93 54.75 144.89 57.04 145.53 52.45 142.11 49.31"/><polygon class="cls-3" points="137.46 18.27 136.11 18.75 135.74 20.13 134.86 19 133.43 19.07 134.24 17.89 133.73 16.55 135.1 16.96 136.22 16.06 136.26 17.49 137.46 18.27"/><polygon class="cls-5" points="133.57 31.75 130.23 34.98 131 39.55 126.9 37.38 122.78 39.52 123.59 34.95 120.28 31.7 124.87 31.05 126.94 26.9 128.98 31.07 133.57 31.75"/></g></svg>