<svg xmlns="http://www.w3.org/2000/svg" viewBox="0 0 187.97 143.5"><defs><style>.cls-1,.cls-12{fill:#663695;}.cls-1,.cls-12,.cls-6{stroke:#00b8b5;stroke-miterlimit:10;}.cls-1{stroke-width:2.03px;}.cls-2,.cls-6{fill:#fff;}.cls-2,.cls-4,.cls-5,.cls-7,.cls-8{stroke:#f26935;}.cls-10,.cls-11,.cls-2,.cls-4,.cls-5,.cls-7,.cls-8{stroke-linecap:round;stroke-linejoin:round;}.cls-2{stroke-width:2.03px;}.cls-3,.cls-7,.cls-8{fill:#f26739;}.cls-4,.cls-5{fill:#f26935;}.cls-4{stroke-width:0.79px;}.cls-5{stroke-width:1.57px;}.cls-6{stroke-width:1.7px;}.cls-7{stroke-width:0.97px;}.cls-8{stroke-width:1.95px;}.cls-9{fill:#00b8b5;}.cls-10,.cls-11{fill:none;stroke:#663695;}.cls-10{stroke-width:4.9px;}.cls-11{stroke-width:6px;}.cls-12{stroke-width:2px;}</style></defs><title>icon-card-product</title><g id="Layer_1" data-name="Layer 1"><path class="cls-1" d="M95,61.29,39.18,106.2a6.1,6.1,0,0,1-8.52-1.33h0A6.1,6.1,0,0,1,32,96.36L90.56,55.09C95.86,51.57,99.9,57.32,95,61.29Z"/><path class="cls-2" d="M127.53,59l-12.09-1.74a1.46,1.46,0,0,0-1.28.45l-8.29,9a1.46,1.46,0,0,1-2.51-.74l-2.08-12a1.46,1.46,0,0,0-.83-1.08l-11.1-5.11a1.46,1.46,0,0,1-.07-2.62l10.81-5.7a1.46,1.46,0,0,0,.77-1.12l1.43-12.14a1.46,1.46,0,0,1,2.47-.88l8.76,8.52a1.46,1.46,0,0,0,1.3.39l12-2.39a1.46,1.46,0,0,1,1.6,2.08l-5.39,11a1.46,1.46,0,0,0,0,1.36l6,10.66A1.46,1.46,0,0,1,127.53,59Z"/><path class="cls-3" d="M121.84,54.62l-7.75-1.12a1.13,1.13,0,0,0-1,.35l-5.31,5.75a1.13,1.13,0,0,1-1.94-.57l-1.33-7.72a1.13,1.13,0,0,0-.64-.83l-7.11-3.28a1.13,1.13,0,0,1-.05-2l6.93-3.65a1.13,1.13,0,0,0,.59-.86l.92-7.78a1.13,1.13,0,0,1,1.9-.67l5.61,5.46a1.13,1.13,0,0,0,1,.3l7.68-1.53a1.13,1.13,0,0,1,1.23,1.6l-3.46,7a1.13,1.13,0,0,0,0,1L123,53A1.13,1.13,0,0,1,121.84,54.62Z"/><polygon class="cls-4" points="116.58 28.72 115.53 28.09 114.43 28.59 114.7 27.41 113.88 26.52 115.09 26.41 115.69 25.35 116.17 26.47 117.36 26.71 116.44 27.51 116.58 28.72"/><polygon class="cls-4" points="118.63 65.84 117.58 65.21 116.48 65.71 116.75 64.53 115.93 63.63 117.14 63.53 117.74 62.47 118.22 63.59 119.41 63.83 118.49 64.63 118.63 65.84"/><polygon class="cls-4" points="94.15 35.54 93.11 34.91 92 35.42 92.28 34.23 91.46 33.34 92.67 33.23 93.27 32.17 93.74 33.29 94.93 33.54 94.01 34.33 94.15 35.54"/><polygon class="cls-4" points="103.83 77.03 102.79 76.4 101.69 76.9 101.96 75.72 101.14 74.82 102.35 74.72 102.95 73.66 103.42 74.78 104.61 75.02 103.7 75.82 103.83 77.03"/><polygon class="cls-5" points="122.85 77.1 120.77 75.84 118.55 76.85 119.1 74.48 117.45 72.68 119.88 72.47 121.08 70.35 122.03 72.59 124.42 73.08 122.58 74.68 122.85 77.1"/><polygon class="cls-5" points="111.56 21.7 109.47 20.45 107.25 21.46 107.8 19.08 106.16 17.29 108.58 17.07 109.79 14.96 110.74 17.2 113.12 17.68 111.28 19.28 111.56 21.7"/><rect class="cls-6" x="43.26" y="86.15" width="4.37" height="15.22" rx="2.18" ry="2.18" transform="translate(-46 43.81) rotate(-35.49)"/><rect class="cls-6" x="46.82" y="83.62" width="4.37" height="15.22" rx="2.18" ry="2.18" transform="matrix(0.81, -0.58, 0.58, 0.81, -43.86, 45.4)"/><rect class="cls-6" x="50.37" y="81.08" width="4.37" height="15.22" rx="2.18" ry="2.18" transform="translate(-41.73 47) rotate(-35.49)"/><polygon class="cls-7" points="134.7 21.52 135.56 22.75 137.06 22.74 136.16 23.94 136.63 25.36 135.21 24.87 134 25.76 134.03 24.26 132.81 23.38 134.25 22.95 134.7 21.52"/><polygon class="cls-8" points="154.09 36.98 155.81 39.45 158.82 39.44 157 41.84 157.95 44.69 155.11 43.7 152.68 45.49 152.74 42.48 150.3 40.72 153.18 39.85 154.09 36.98"/><path class="cls-9" d="M141.36,52.76a8.59,8.59,0,0,1,3.88-1.45c1.49-.14,3.91.1,4.38,1.9.74,2.83-3,1.7-4.4,1.05a18.72,18.72,0,0,1-3.76-2.33c-.52-.41-1.27.32-.74.74,1.8,1.42,9.68,6.55,10,1.2.11-1.94-1.57-3.17-3.31-3.53a9,9,0,0,0-6.59,1.5C140.27,52.22,140.8,53.12,141.36,52.76Z"/><path class="cls-9" d="M133.59,79a8,8,0,0,1,.07-10.51c2.32-2.52,8.39-4.4,10.17-.15l.64-.64a8.31,8.31,0,0,1-3.11-14.91.53.53,0,0,0,.11-.82c-4.25-3.45-7.34-9.19-5.92-14.78a10.67,10.67,0,0,1,4.55-6.25,9.36,9.36,0,0,1,4.17-1.49,8.25,8.25,0,0,1,1.34,0,4.68,4.68,0,0,1,1.85.44q1.85.35,0,2.59c-.2-.64-1.21-.37-1,.28.89,2.85,4.68,1,3.76-1.7-1.25-3.74-7.18-2.87-9.79-1.53-9.58,4.93-6.82,17.42.27,23.18l.11-.82c-2.94,2.18-4.79,5.54-4.05,9.27a9.83,9.83,0,0,0,7.41,7.55c.34.08.81-.25.64-.64-1.88-4.48-7.93-3.74-11.08-1.12a9.06,9.06,0,0,0-.91,12.79c.43.52,1.17-.22.74-.74Z"/><rect class="cls-10" x="78.47" y="114.94" width="30.75" height="21.18"/><line class="cls-11" x1="59.66" y1="136.12" x2="128.03" y2="136.12"/><path class="cls-12" d="M171.1,4.92H16.59a13,13,0,0,0-13,13v85.8a13,13,0,0,0,13,13H171.1a13,13,0,0,0,12.95-13V17.87A13,13,0,0,0,171.1,4.92ZM174.61,98a11.44,11.44,0,0,1-11.44,11.44H24.52A11.45,11.45,0,0,1,13.08,98V23.52A11.44,11.44,0,0,1,24.52,12.08H163.17a11.44,11.44,0,0,1,11.44,11.44Z"/></g></svg>