<svg xmlns="http://www.w3.org/2000/svg" viewBox="0 0 188.01 127.42"><defs><style>.cls-1,.cls-10,.cls-11,.cls-5{fill:#f26739;}.cls-1,.cls-10,.cls-11,.cls-7,.cls-9{stroke:#f26935;}.cls-1,.cls-10,.cls-11,.cls-2,.cls-3,.cls-4,.cls-5,.cls-6,.cls-7,.cls-8,.cls-9{stroke-linecap:round;stroke-linejoin:round;}.cls-1,.cls-6,.cls-7{stroke-width:0.84px;}.cls-2{fill:#663695;}.cls-2,.cls-5{stroke:#00b8b5;}.cls-2,.cls-3,.cls-4,.cls-5{stroke-width:2.71px;}.cls-12,.cls-3{fill:#00b8b5;}.cls-3,.cls-4{stroke:#663695;}.cls-4,.cls-7,.cls-9{fill:#f26935;}.cls-6,.cls-8{fill:#fff;stroke:#fff;}.cls-8,.cls-9{stroke-width:1.68px;}.cls-10{stroke-width:1.01px;}.cls-11{stroke-width:2.02px;}</style></defs><title>icon-textures</title><g id="Layer_1" data-name="Layer 1"><polygon class="cls-1" points="100.77 27.61 102.03 27.9 102.99 27.03 103.1 28.32 104.22 28.96 103.03 29.46 102.77 30.73 101.92 29.75 100.64 29.89 101.31 28.78 100.77 27.61"/><polygon class="cls-2" points="144.79 66.04 143.02 112.16 96.31 124.42 96.31 47.54 108.18 73.62 144.79 66.04"/><polygon class="cls-3" points="96.31 47.54 96.31 124.42 49.21 112.16 47.72 66.53 84.05 73.62 96.31 47.54"/><polygon class="cls-2" points="145.74 41.12 96.31 47.54 96.31 35.09 145.74 41.12"/><polygon class="cls-3" points="96.31 35.09 96.31 47.54 46.87 40.54 96.31 35.09"/><polygon class="cls-4" points="96.31 47.54 84.05 73.62 47.72 66.53 35.2 64.09 46.87 40.54 96.31 47.54"/><polygon class="cls-5" points="157.03 63.5 144.79 66.04 108.18 73.62 96.31 47.54 145.74 41.12 157.03 63.5"/><polygon class="cls-6" points="122.63 96.26 121.43 95.76 120.34 96.46 120.45 95.17 119.44 94.36 120.7 94.06 121.17 92.85 121.84 93.95 123.13 94.02 122.29 95.01 122.63 96.26"/><polygon class="cls-7" points="115.27 106.63 114.08 106.13 112.99 106.84 113.09 105.55 112.09 104.73 113.35 104.43 113.81 103.22 114.49 104.33 115.78 104.4 114.94 105.38 115.27 106.63"/><polygon class="cls-6" points="137.17 77.33 135.98 76.83 134.89 77.53 135 76.25 133.99 75.43 135.25 75.13 135.72 73.92 136.39 75.03 137.68 75.1 136.84 76.08 137.17 77.33"/><polygon class="cls-7" points="131.89 102.49 130.69 101.99 129.61 102.69 129.71 101.41 128.71 100.59 129.96 100.29 130.43 99.08 131.1 100.19 132.4 100.26 131.56 101.24 131.89 102.49"/><polygon class="cls-7" points="123.73 112.9 122.54 112.41 121.45 113.11 121.55 111.82 120.55 111 121.81 110.7 122.27 109.5 122.95 110.6 124.24 110.67 123.4 111.65 123.73 112.9"/><polygon class="cls-6" points="139.02 109.28 137.82 108.79 136.74 109.49 136.84 108.2 135.84 107.39 137.1 107.08 137.56 105.88 138.24 106.98 139.53 107.05 138.69 108.03 139.02 109.28"/><polygon class="cls-7" points="115.27 89.5 114.08 89 112.99 89.71 113.09 88.42 112.09 87.6 113.35 87.3 113.81 86.09 114.49 87.2 115.78 87.27 114.94 88.25 115.27 89.5"/><polygon class="cls-7" points="121.89 80.46 120.69 79.96 119.6 80.66 119.71 79.37 118.7 78.56 119.96 78.26 120.43 77.05 121.1 78.15 122.39 78.22 121.55 79.21 121.89 80.46"/><polygon class="cls-6" points="106.25 115.97 105.06 115.47 103.97 116.17 104.08 114.89 103.07 114.07 104.33 113.77 104.8 112.56 105.47 113.67 106.76 113.74 105.92 114.72 106.25 115.97"/><polygon class="cls-6" points="105.61 81.79 104.42 81.29 103.33 81.99 103.43 80.7 102.43 79.89 103.69 79.59 104.15 78.38 104.83 79.48 106.12 79.55 105.28 80.54 105.61 81.79"/><polygon class="cls-7" points="130.04 85.51 128.85 85.01 127.76 85.71 127.86 84.42 126.86 83.61 128.12 83.31 128.59 82.1 129.26 83.2 130.55 83.28 129.71 84.26 130.04 85.51"/><polygon class="cls-7" points="138.43 92.73 137.24 92.24 136.15 92.94 136.25 91.65 135.25 90.83 136.51 90.53 136.97 89.33 137.65 90.43 138.94 90.5 138.1 91.48 138.43 92.73"/><polygon class="cls-7" points="105.61 98.88 104.42 98.38 103.33 99.08 103.43 97.79 102.43 96.98 103.69 96.68 104.15 95.47 104.83 96.57 106.12 96.64 105.28 97.63 105.61 98.88"/><polygon class="cls-8" points="60.65 83.39 58.25 82.4 56.08 83.81 56.28 81.22 54.27 79.59 56.79 78.98 57.73 76.57 59.08 78.78 61.66 78.92 59.98 80.89 60.65 83.39"/><polygon class="cls-8" points="86.03 114.51 83.64 113.52 81.46 114.92 81.67 112.34 79.65 110.7 82.17 110.1 83.11 107.68 84.46 109.9 87.05 110.04 85.36 112 86.03 114.51"/><polygon class="cls-8" points="87.1 87.49 84.71 86.49 82.53 87.9 82.74 85.32 80.73 83.68 83.25 83.08 84.18 80.66 85.53 82.87 88.12 83.01 86.44 84.98 87.1 87.49"/><polygon class="cls-9" points="74.27 97.86 71.88 96.87 69.7 98.28 69.91 95.69 67.89 94.06 70.42 93.45 71.35 91.04 72.7 93.25 75.29 93.39 73.6 95.36 74.27 97.86"/><polygon class="cls-9" points="120.8 22.68 118.4 21.68 116.23 23.09 116.43 20.51 114.42 18.87 116.94 18.27 117.88 15.85 119.23 18.07 121.82 18.21 120.13 20.18 120.8 22.68"/><polygon class="cls-8" points="60.65 108.24 58.25 107.24 56.08 108.65 56.28 106.06 54.27 104.43 56.79 103.83 57.73 101.41 59.08 103.62 61.66 103.76 59.98 105.73 60.65 108.24"/><polygon class="cls-10" points="62.9 28.95 64.15 28 64.07 26.44 65.36 27.33 66.82 26.78 66.37 28.28 67.34 29.5 65.78 29.53 64.92 30.84 64.41 29.36 62.9 28.95"/><polygon class="cls-11" points="78.13 8.12 80.62 6.23 80.47 3.1 83.05 4.89 85.97 3.78 85.07 6.78 87.03 9.22 83.9 9.29 82.18 11.91 81.15 8.95 78.13 8.12"/><path class="cls-12" d="M95.09,20.68a8.94,8.94,0,0,1-1.75-4.46c-.12-1.61.35-4.34,2.52-4.25,3.68.16-.81,7.47-1.71,8.71-.41.57.53,1.11.94.55,1.37-1.9,6.29-10.22.77-10.35-2,0-3.24,1.75-3.54,3.57a9.3,9.3,0,0,0,1.83,6.78C94.55,21.8,95.49,21.26,95.09,20.68Z"/><path class="cls-12" d="M122.67,27.58a8.32,8.32,0,0,1-11.31.08c-2.61-2.49-4.29-8.32-.12-10.28l-.8-.62A8.64,8.64,0,0,1,95,20.57a.55.55,0,0,0-.86.11c-3.44,4.62-9.45,8-15.34,6.63a11.08,11.08,0,0,1-6.55-4.64,9.86,9.86,0,0,1-1.49-3.59,8.59,8.59,0,0,1-.13-1.86c.1-2.89.37-1.09,3.09-2.07-.65.24-.37,1.29.29,1.05,2.94-1.06.91-5-1.95-3.82C68,14,69.55,20.54,71.32,23.23c6,9.1,18.21,5.47,23.77-2l-.86.11a9.72,9.72,0,0,0,17.26-4.29.55.55,0,0,0-.8-.62c-4.52,2.13-3.34,8.41-.59,11.49a9.41,9.41,0,0,0,13.34.43c.52-.47-.25-1.24-.77-.77Z"/></g></svg>