<svg xmlns="http://www.w3.org/2000/svg" viewBox="0 0 188.01 127.42"><defs><style>.cls-1{fill:#663695;}.cls-1,.cls-2{stroke:#663695;stroke-width:2.57px;}.cls-1,.cls-2,.cls-5,.cls-6,.cls-7,.cls-8{stroke-linecap:round;stroke-linejoin:round;}.cls-2,.cls-9{fill:#00b8b5;}.cls-3,.cls-7,.cls-8{fill:#f26739;}.cls-3,.cls-4{stroke:#00b8b5;stroke-miterlimit:10;}.cls-3{stroke-width:2.13px;}.cls-4{fill:#fff;stroke-width:2.06px;}.cls-5,.cls-6{fill:#f26935;}.cls-5,.cls-6,.cls-7,.cls-8{stroke:#f26935;}.cls-5{stroke-width:0.82px;}.cls-6{stroke-width:1.65px;}.cls-7{stroke-width:0.99px;}.cls-8{stroke-width:1.99px;}</style></defs><title>icon-drawing</title><g id="Layer_1" data-name="Layer 1"><path class="cls-1" d="M86.25,94.86c-6.32,20.62-20.39,25.95-32,26.15,4.84-4,8-10.91,6.28-21.78-3,3.28-7.9,5.36-13.08,6.91,2.85-4.47,6.82-11.35,13.84-22.64C69,71.07,91,79.22,86.25,94.86Z"/><path class="cls-2" d="M54.26,121c-10.6.2-19.16-3.89-17.88-4.5,5.2-2.49,7-4,11.07-10.37,5.19-1.54,10.07-3.63,13.08-6.91C62.25,110.1,59.1,117,54.26,121Z"/><path class="cls-3" d="M128.57,9.27l-37,65.2a6.37,6.37,0,0,1-8.79,2h0a6.37,6.37,0,0,1-2-8.79l41-62.7C125.61-.49,131.75,3.54,128.57,9.27Z"/><rect class="cls-4" x="80.24" y="67.81" width="5.3" height="18.49" rx="2.65" ry="2.65" transform="translate(-26.82 104.84) rotate(-57.12)"/><rect class="cls-4" x="83.12" y="63.36" width="5.3" height="18.49" rx="2.65" ry="2.65" transform="translate(-21.77 105.22) rotate(-57.12)"/><rect class="cls-4" x="86" y="58.91" width="5.3" height="18.49" rx="2.65" ry="2.65" transform="translate(-16.71 105.6) rotate(-57.12)"/><polygon class="cls-5" points="91.76 109.92 90.58 109.43 89.52 110.12 89.62 108.86 88.63 108.05 89.87 107.76 90.33 106.57 90.99 107.66 92.26 107.73 91.43 108.69 91.76 109.92"/><polygon class="cls-6" points="86.06 121.84 83.71 120.86 81.57 122.25 81.78 119.71 79.8 118.1 82.28 117.51 83.19 115.13 84.52 117.31 87.06 117.45 85.41 119.38 86.06 121.84"/><polygon class="cls-7" points="104.56 113.76 104.61 112.23 103.37 111.32 104.84 110.89 105.33 109.44 106.19 110.7 107.72 110.71 106.78 111.92 107.25 113.38 105.81 112.87 104.56 113.76"/><polygon class="cls-8" points="98.07 89.3 98.17 86.23 95.69 84.41 98.64 83.55 99.6 80.64 101.33 83.17 104.4 83.19 102.52 85.62 103.46 88.54 100.56 87.51 98.07 89.3"/><path class="cls-9" d="M118,84.11a8.54,8.54,0,0,1-4.51-1.48c-1.28-.91-3.42-3.69-1.11-4.87,2.53-1.29,4.68,5.47,5.1,7a.54.54,0,0,0,1-.28c-.62-2.3-3.87-11.07-7.4-7.06-1.25,1.43-.77,3.39.33,4.74a9.06,9.06,0,0,0,6.55,3C118.72,85.22,118.72,84.15,118,84.11Z"/><path class="cls-9" d="M140.39,67.28a8.24,8.24,0,0,1-5.77,8.5c-3.62,1-10.21-1.06-9.07-6l-.89.24A8.47,8.47,0,0,1,118,84.11a.54.54,0,0,0-.52.68c1.42,5.56.31,12.43-4.6,16a10.91,10.91,0,0,1-6.78,2,9.64,9.64,0,0,1-4-1,8.32,8.32,0,0,1-1.72-1.15l-.46-.44q-2-1.51.76-3.12a.54.54,0,0,0,1,.28c1-3.23-3.93-3.51-4.25-.18-.39,3.93,4.86,6.37,8,6.65,10.53.94,15.31-10.51,13.05-19.32l-.52.68a9.55,9.55,0,0,0,7.38-15.88.54.54,0,0,0-.89.24c-1.15,5,4.54,8,8.78,7.57a9.23,9.23,0,0,0,8.17-9.82c0-.69-1.1-.69-1.07,0Z"/></g></svg>