<svg xmlns="http://www.w3.org/2000/svg" viewBox="0 0 187.97 143.5"><defs><style>.cls-1{fill:#663695;}.cls-1,.cls-2{stroke:#00b8b5;stroke-miterlimit:10;stroke-width:2px;}.cls-2{fill:#00b8b5;}.cls-3{fill:#f26739;stroke:#f26739;stroke-width:0.73px;}.cls-3,.cls-4{stroke-linecap:round;stroke-linejoin:round;}.cls-4{fill:#f26935;stroke:#f26935;stroke-width:1.36px;}</style></defs><title>icon-card-company</title><g id="Layer_1" data-name="Layer 1"><path class="cls-1" d="M154,68.82a9.18,9.18,0,0,1-.75,3.65q-1.73,2.19-3.64,4.22a69.34,69.34,0,0,1-101.62-.37c-1.24-1.33-2.41-2.71-3.53-4.14a9.25,9.25,0,0,1,8.5-12.92,9.06,9.06,0,0,1,3,.51c1.42,1.14,2.9,2.22,4.41,3.25a69.36,69.36,0,0,0,7.38,4.35V79.5c6.4,8.69,51.75,11,61.59,0V68a68.08,68.08,0,0,0,7.74-4.39c1.75-1.14,3.45-2.37,5.09-3.67a9.07,9.07,0,0,1,2.54-.36A9.25,9.25,0,0,1,154,68.82Z"/><path class="cls-2" d="M129.32,68V79.5c-9.84,11-55.19,8.69-61.59,0V67.37a69,69,0,0,0,31.41,7.51A69.12,69.12,0,0,0,129.32,68Z"/><ellipse class="cls-2" cx="98.53" cy="10.12" rx="30.79" ry="7.92"/><path class="cls-1" d="M129.32,10.12V68a69.12,69.12,0,0,1-30.18,6.89,69,69,0,0,1-31.41-7.51V10.12c0,4.37,13.79,7.92,30.79,7.92S129.32,14.49,129.32,10.12Z"/><path class="cls-3" d="M98.4,127.63a9.92,9.92,0,0,1-2.92,7c-.43.39-.87.76-1.33,1.11a22.87,22.87,0,0,1-36.71-15.64,11.68,11.68,0,0,0,21.65,4.08s0,0,0,0c.27-.55.44-.89.81-1.67a9.95,9.95,0,0,1,18.49,5.09Z"/><path class="cls-3" d="M99.27,127.63a9.92,9.92,0,0,0,2.92,7c.43.39.87.76,1.33,1.11a22.87,22.87,0,0,0,36.71-15.64,11.68,11.68,0,0,1-21.65,4.08s0,0,0,0c-.27-.55-.44-.89-.81-1.67a9.95,9.95,0,0,0-18.49,5.09Z"/><polygon class="cls-4" points="118.57 28.5 116.63 27.69 114.86 28.83 115.03 26.73 113.39 25.4 115.44 24.91 116.2 22.95 117.3 24.75 119.4 24.86 118.03 26.46 118.57 28.5"/><polygon class="cls-4" points="108.61 58.93 106.66 58.12 104.89 59.27 105.06 57.17 103.43 55.84 105.48 55.35 106.23 53.39 107.33 55.18 109.44 55.3 108.06 56.9 108.61 58.93"/><polygon class="cls-4" points="86.14 37.74 84.2 36.93 82.43 38.08 82.6 35.98 80.97 34.65 83.01 34.16 83.77 32.2 84.87 33.99 86.97 34.11 85.6 35.71 86.14 37.74"/></g></svg>