<svg xmlns="http://www.w3.org/2000/svg" viewBox="0 0 188.01 127.42"><defs><style>.cls-1,.cls-13{fill:#00b8b5;}.cls-1,.cls-3,.cls-4{stroke:#663695;stroke-width:2.12px;}.cls-1,.cls-10,.cls-11,.cls-12,.cls-2,.cls-3,.cls-4,.cls-5,.cls-6,.cls-7,.cls-8,.cls-9{stroke-linecap:round;stroke-linejoin:round;}.cls-2,.cls-4,.cls-6,.cls-8{fill:#fff;}.cls-2,.cls-6,.cls-8{stroke:#fff;}.cls-2{stroke-width:1.46px;}.cls-3{fill:#f26935;}.cls-11,.cls-12,.cls-5,.cls-7,.cls-9{fill:#f26739;}.cls-10,.cls-11,.cls-12,.cls-5,.cls-7,.cls-9{stroke:#f26935;}.cls-5,.cls-6{stroke-width:0.83px;}.cls-7{stroke-width:0.86px;}.cls-8,.cls-9{stroke-width:1.65px;}.cls-10{fill:#f26738;stroke-width:2.67px;}.cls-11{stroke-width:1.05px;}.cls-12{stroke-width:2.1px;}</style></defs><title>icon-filters</title><g id="Layer_1" data-name="Layer 1"><circle class="cls-1" cx="90.43" cy="63.19" r="46.52"/><path class="cls-2" d="M59,59.59A31.4,31.4,0,0,0,75.73,87.34,32.21,32.21,0,1,1,109.6,34.72,31.4,31.4,0,0,0,59,59.59Z"/><path class="cls-3" d="M60.15,111.56h62.08A12.47,12.47,0,0,1,134.7,124v0a0,0,0,0,1,0,0h-87a0,0,0,0,1,0,0v0A12.47,12.47,0,0,1,60.15,111.56Z"/><path class="cls-4" d="M66.58,103.12H114.3a8.44,8.44,0,0,1,8.44,8.44v0a0,0,0,0,1,0,0H58.14a0,0,0,0,1,0,0v0A8.44,8.44,0,0,1,66.58,103.12Z"/><polygon class="cls-5" points="118.69 81.37 119.89 80.96 120.25 79.74 121.01 80.76 122.28 80.72 121.54 81.76 121.98 82.96 120.76 82.57 119.75 83.36 119.74 82.08 118.69 81.37"/><polygon class="cls-6" points="126.3 71.25 127.51 70.84 127.86 69.62 128.62 70.64 129.89 70.6 129.15 71.64 129.59 72.84 128.37 72.45 127.37 73.24 127.36 71.96 126.3 71.25"/><polygon class="cls-6" points="104.38 48.37 105.59 47.97 105.94 46.74 106.7 47.77 107.98 47.72 107.24 48.76 107.67 49.96 106.45 49.58 105.45 50.36 105.44 49.09 104.38 48.37"/><polygon class="cls-7" points="117.99 42 119.25 41.58 119.62 40.3 120.41 41.37 121.74 41.33 120.97 42.41 121.42 43.66 120.15 43.26 119.1 44.08 119.09 42.75 117.99 42"/><polygon class="cls-8" points="104.37 71.07 106.8 70.26 107.5 67.8 109.03 69.85 111.58 69.77 110.09 71.85 110.97 74.25 108.53 73.48 106.51 75.06 106.49 72.5 104.37 71.07"/><polygon class="cls-9" points="89.28 71.48 91.71 70.67 92.41 68.21 93.93 70.26 96.49 70.17 95 72.26 95.88 74.66 93.44 73.89 91.42 75.46 91.4 72.91 89.28 71.48"/><polygon class="cls-6" points="96.31 90.07 95.08 89.73 94.11 90.55 94.05 89.28 92.97 88.6 94.16 88.15 94.47 86.91 95.27 87.91 96.54 87.82 95.84 88.89 96.31 90.07"/><polygon class="cls-9" points="113 91.57 110.53 90.89 108.58 92.53 108.46 89.98 106.29 88.63 108.69 87.73 109.3 85.25 110.9 87.25 113.45 87.07 112.04 89.2 113 91.57"/><polygon class="cls-10" points="125.75 60.37 121.67 61.02 119.89 64.75 118.02 61.07 113.92 60.54 116.84 57.61 116.08 53.55 119.76 55.42 123.39 53.45 122.75 57.53 125.75 60.37"/><polygon class="cls-11" points="109.32 5.12 110.89 5.49 112.09 4.4 112.23 6.01 113.63 6.81 112.14 7.44 111.81 9.03 110.76 7.8 109.15 7.98 109.99 6.6 109.32 5.12"/><polygon class="cls-12" points="135.97 3.52 139.13 4.26 141.52 2.08 141.8 5.31 144.61 6.92 141.63 8.17 140.97 11.35 138.85 8.89 135.63 9.25 137.31 6.48 135.97 3.52"/><path class="cls-13" d="M144.85,21.91c-1.58,2.05-5.88,2.51-8.24,2.68l.54.71a9.12,9.12,0,0,1,2.47-4.38,5.39,5.39,0,0,1,2.55-1.47c1.32-.25,3.47.64,2.68,2.46-.29.66.69,1.23,1,.57,1-2.32-1.06-4.44-3.43-4.2-3.33.33-5.53,3.79-6.33,6.72a.57.57,0,0,0,.54.71c2.93-.2,7.3-.74,9.22-3.24C146.27,21.91,145.29,21.34,144.85,21.91Z"/><path class="cls-13" d="M149.94,51.91c-4-.61-7.48-3.73-7.65-7.95-.16-3.82,3.33-10.21,8.07-8V35a8.94,8.94,0,0,1-13.21-9.71.57.57,0,0,0-.54-.71c-6,.26-12.71-2.17-15.5-7.88a11.47,11.47,0,0,1-.62-8.23,10,10,0,0,1,2.07-3.81,8.15,8.15,0,0,1,1.77-1.51l.55-.32q3-2,2.54,1.78a.56.56,0,0,0-.57,1c2.94,1.75,4.54-3.05,1.31-4.26-4.14-1.56-8,3.81-8.85,7.14-2.86,10.62,7.85,17.64,17.3,17.24l-.54-.71c-.79,3.93.26,8,3.62,10.41a10.55,10.55,0,0,0,11.25.57.57.57,0,0,0,0-1c-4.81-2.26-9.16,2.93-9.69,7.34A9.75,9.75,0,0,0,149.64,53c.71.11,1-1,.3-1.09Z"/></g></svg>