<svg xmlns="http://www.w3.org/2000/svg" viewBox="0 0 188.01 127.42"><defs><style>.cls-1,.cls-8{fill:#fff;}.cls-1,.cls-2,.cls-7{stroke:#00b8b5;}.cls-1,.cls-2,.cls-3,.cls-4,.cls-6,.cls-7,.cls-8,.cls-9{stroke-linecap:round;stroke-linejoin:round;}.cls-1,.cls-2{stroke-width:2.73px;}.cls-2{fill:#663695;}.cls-3,.cls-4,.cls-9{fill:#f26739;}.cls-3,.cls-4,.cls-6{stroke:#f26935;}.cls-3{stroke-width:1.14px;}.cls-4{stroke-width:2.28px;}.cls-5,.cls-7{fill:#00b8b5;}.cls-6{fill:#f26935;stroke-width:1.82px;}.cls-7{stroke-width:1.01px;}.cls-8{stroke:#fff;stroke-width:0.68px;}.cls-9{stroke:#f26739;stroke-width:1.12px;}</style></defs><title>icon-palette</title><g id="Layer_1" data-name="Layer 1"><path class="cls-1" d="M131.18,85.08A38.37,38.37,0,1,1,76.92,50.16v-16h-1a8,8,0,1,1,0-16h33.83a8,8,0,1,1,0,16h-1v16A38.36,38.36,0,0,1,131.18,85.08Z"/><path class="cls-2" d="M120.9,84.24A28.08,28.08,0,1,1,67.7,71.67h50.23A28,28,0,0,1,120.9,84.24Z"/><polygon class="cls-3" points="58.86 4.46 60.56 4.93 61.91 3.79 61.98 5.56 63.48 6.49 61.83 7.11 61.4 8.82 60.3 7.44 58.54 7.56 59.52 6.09 58.86 4.46"/><polygon class="cls-4" points="87.96 3.89 91.36 4.84 94.07 2.57 94.23 6.1 97.22 7.97 93.91 9.21 93.06 12.64 90.86 9.87 87.33 10.12 89.28 7.17 87.96 3.89"/><path class="cls-5" d="M88.3,27.64a10.15,10.15,0,0,1,2.46-4.24c1.29-1.29,3.95-2.91,5.61-1.25,3.47,3.46-7.2,4.68-8.66,4.72a.62.62,0,0,0,0,1.23c2.74-.07,13.67-1.38,9.84-6.45C96.17,19.82,93.71,20,91.9,21a10.58,10.58,0,0,0-4.78,6.31C86.88,28.07,88.06,28.39,88.3,27.64Z"/><path class="cls-5" d="M101,57.21a9.43,9.43,0,0,1-7.94-9.06c0-4.2,4.1-10.86,9.14-8.24V38.85a10.32,10.32,0,0,1-10.56-.78c-3.38-2.41-4.31-6.57-3.35-10.43a.62.62,0,0,0-.59-.78c-6.46.07-13.49-2.85-16.4-9a12.47,12.47,0,0,1-.55-9A11.17,11.17,0,0,1,72.7,5.25a9.32,9.32,0,0,1,1.67-1.63,6.06,6.06,0,0,1,1-.66q2.18-1.73,3.21,1.75c-.65-.45-1.27.61-.62,1.06C81.07,7.94,83.19,2.22,79.19,1c-4.56-1.38-8.66,4.21-9.7,7.9-3.22,11.31,8,19.28,18.22,19.18l-.59-.78c-1,4.17-.11,8.61,3.35,11.39a11.55,11.55,0,0,0,12.37,1.22.62.62,0,0,0,0-1.06C97.61,36.13,92.66,41.78,92,46.6a10.61,10.61,0,0,0,8.72,11.8c.77.15,1.11-1,.33-1.19Z"/><polygon class="cls-6" points="98.44 105.05 91.55 102.19 85.28 106.24 85.88 98.8 80.09 94.09 87.35 92.36 90.03 85.4 93.93 91.77 101.38 92.17 96.52 97.84 98.44 105.05"/><polygon class="cls-7" points="113.2 86.19 109.84 84.79 106.78 86.77 107.07 83.13 104.24 80.84 107.79 79.99 109.1 76.59 111 79.7 114.64 79.9 112.27 82.67 113.2 86.19"/><polygon class="cls-8" points="110.31 98.84 108.05 97.9 106 99.23 106.19 96.79 104.3 95.25 106.67 94.68 107.56 92.4 108.83 94.49 111.27 94.62 109.68 96.48 110.31 98.84"/><polygon class="cls-9" points="86.08 63.11 83.28 61.94 80.73 63.59 80.97 60.56 78.62 58.65 81.57 57.94 82.66 55.11 84.25 57.7 87.28 57.87 85.3 60.17 86.08 63.11"/></g></svg>