<svg xmlns="http://www.w3.org/2000/svg" viewBox="0 0 188.01 127.42"><defs><style>.cls-1,.cls-2{fill:#663695;}.cls-1{stroke:#00b8b5;stroke-width:3.09px;}.cls-1,.cls-4,.cls-5,.cls-6,.cls-7,.cls-8{stroke-linecap:round;stroke-linejoin:round;}.cls-2{stroke:#00b8b4;}.cls-2,.cls-3{stroke-miterlimit:10;}.cls-2,.cls-3,.cls-4{stroke-width:2.64px;}.cls-3{fill:#00b8b4;stroke:#00b7b3;}.cls-4{fill:#f26738;}.cls-4,.cls-6,.cls-7,.cls-8{stroke:#f26935;}.cls-5{fill:#fff;stroke:#fff;}.cls-5,.cls-6{stroke-width:0.81px;}.cls-6{fill:#f26935;}.cls-7,.cls-8{fill:#f26739;}.cls-7{stroke-width:1.01px;}.cls-8{stroke-width:2.03px;}.cls-9{fill:#00b8b5;}</style></defs><title>icon-community</title><g id="Layer_1" data-name="Layer 1"><ellipse class="cls-1" cx="96.52" cy="102.76" rx="68.64" ry="20.45"/><path class="cls-2" d="M129.77,83.68c-16.11,22.75-52.15,3.05-65-1.21.35-16.56,7.47-23.6,9.77-35.21C75.93,40.1,72.89,31.87,70.62,31,51.3,23.64,21.17,39.52,32.68,58.31c11.19,18.27,12.78,23.57,5.63,19.37C14.95,64,15.08,34,41.79,11.66,61.46-4.79,101,3.25,107.33,17.81S123.6,33,125.76,57.58C126.82,69.68,128.8,77.77,129.77,83.68Z"/><path class="cls-3" d="M127.44,96.92c-3.22,3.38-13.72,5.7-26,5.84h-.11c-3.29,0-6.66-.16-10-.37l-.23,0c-8.94-.78-18-2.77-25.34-6.34a75.31,75.31,0,0,1-1-13.56c12.89,4.26,48.92,24,65,1.21C130.76,89.76,130.68,93.51,127.44,96.92Z"/><polygon class="cls-4" points="100.73 84.06 96.96 82.49 93.54 84.71 93.86 80.64 90.7 78.07 94.67 77.12 96.13 73.32 98.26 76.8 102.33 77.02 99.68 80.12 100.73 84.06"/><polygon class="cls-4" points="71.17 19.17 67.41 17.6 63.98 19.82 64.31 15.75 61.14 13.18 65.11 12.23 66.58 8.43 68.7 11.91 72.78 12.13 70.12 15.23 71.17 19.17"/><polygon class="cls-4" points="100.59 31.5 96.83 29.94 93.4 32.15 93.73 28.09 90.56 25.52 94.53 24.57 96 20.76 98.13 24.24 102.2 24.46 99.55 27.56 100.59 31.5"/><polygon class="cls-4" points="88.53 58.62 84.76 57.05 81.33 59.27 81.66 55.2 78.5 52.63 82.46 51.68 83.93 47.88 86.06 51.36 90.13 51.58 87.48 54.68 88.53 58.62"/><polygon class="cls-4" points="118.13 64.31 114.36 62.75 110.94 64.96 111.26 60.9 108.1 58.32 112.07 57.38 113.53 53.57 115.66 57.05 119.73 57.27 117.08 60.37 118.13 64.31"/><polygon class="cls-5" points="102.71 48.49 101.85 47.56 100.6 47.75 101.22 46.65 100.66 45.52 101.89 45.76 102.79 44.88 102.95 46.13 104.06 46.72 102.92 47.24 102.71 48.49"/><polygon class="cls-5" points="116.02 79.67 115.16 78.75 113.92 78.94 114.53 77.83 113.97 76.7 115.21 76.95 116.11 76.07 116.26 77.32 117.38 77.9 116.23 78.43 116.02 79.67"/><polygon class="cls-5" points="78.87 72.38 78.01 71.45 76.77 71.64 77.38 70.53 76.82 69.4 78.06 69.65 78.96 68.77 79.11 70.02 80.23 70.6 79.08 71.13 78.87 72.38"/><polygon class="cls-5" points="47.61 21.62 46.75 20.7 45.51 20.88 46.12 19.78 45.56 18.65 46.8 18.89 47.7 18.01 47.85 19.26 48.97 19.85 47.82 20.38 47.61 21.62"/><polygon class="cls-5" points="30.82 65.8 29.96 64.87 28.71 65.06 29.33 63.95 28.77 62.83 30 63.07 30.91 62.19 31.06 63.44 32.17 64.02 31.03 64.55 30.82 65.8"/><polygon class="cls-6" points="33.54 32.15 32.68 31.23 31.44 31.41 32.05 30.31 31.49 29.18 32.73 29.43 33.63 28.55 33.78 29.8 34.9 30.38 33.75 30.91 33.54 32.15"/><polygon class="cls-5" points="80.6 28.26 79.74 27.34 78.5 27.52 79.11 26.42 78.55 25.29 79.79 25.54 80.69 24.65 80.84 25.91 81.95 26.49 80.81 27.02 80.6 28.26"/><polygon class="cls-5" points="90.51 13.27 89.65 12.34 88.4 12.53 89.01 11.43 88.45 10.3 89.69 10.54 90.59 9.66 90.74 10.91 91.86 11.49 90.72 12.03 90.51 13.27"/><polygon class="cls-7" points="166.91 80.35 165.48 79.71 164.14 80.52 164.31 78.96 163.13 77.94 164.66 77.62 165.27 76.18 166.05 77.54 167.6 77.67 166.55 78.83 166.91 80.35"/><polygon class="cls-8" points="141.3 76.9 138.44 75.61 135.76 77.23 136.1 74.11 133.73 72.06 136.8 71.43 138.02 68.53 139.57 71.26 142.7 71.52 140.59 73.84 141.3 76.9"/><path class="cls-9" d="M144.25,56a9.3,9.3,0,0,1-2.41,3.17c-1.27,1-3.75,2.28-5.22.86-2.4-2.33,2.14-3.19,3.57-3.33a20.26,20.26,0,0,1,4.53.11c.7.09.69-1,0-1.09-2.22-.28-12.78-.38-9.23,4.65,2.87,4.06,8.33-1,9.7-3.82C145.5,55.89,144.56,55.34,144.25,56Z"/><path class="cls-9" d="M137.16,28.39A8.35,8.35,0,0,1,142.71,38c-.85,3.59-5.22,8.19-9.09,5.35l-.13,1a8.65,8.65,0,0,1,10.7,11.79.55.55,0,0,0,.38.67c5.76.83,11.71,4.42,13.29,10.35a11.17,11.17,0,0,1-.93,7.95,9.79,9.79,0,0,1-2.2,2.84,8.43,8.43,0,0,1-1.95,1.29l-1,.4q-2.44,1.14-2.14-2.18c.52.47,1.3-.3.77-.77-2.38-2.12-4.8,1.66-2.36,3.6,3.4,2.71,8.36-1.78,9.86-4.62,5-9.52-3.82-18.58-13-19.9l.38.67a9.73,9.73,0,0,0-12-13.13.55.55,0,0,0-.13,1c4.15,3.05,9.25-1.29,10.51-5.32a9.45,9.45,0,0,0-6.13-11.61c-.66-.24-.95.82-.29,1.05Z"/></g></svg>