<svg xmlns="http://www.w3.org/2000/svg" viewBox="0 0 187.97 143.5"><defs><style>.cls-1,.cls-7{fill:#fff;}.cls-1,.cls-2{stroke:#00b8b5;}.cls-1,.cls-10,.cls-2,.cls-3,.cls-4,.cls-5,.cls-8,.cls-9{stroke-linecap:round;stroke-linejoin:round;}.cls-1,.cls-2,.cls-3{stroke-width:2.46px;}.cls-2,.cls-3{fill:#663695;}.cls-3{stroke:#00b8b4;}.cls-4,.cls-5{fill:#f26739;}.cls-10,.cls-4,.cls-5,.cls-8,.cls-9{stroke:#f26935;}.cls-4{stroke-width:1.14px;}.cls-5{stroke-width:2.28px;}.cls-6{fill:#00b8b5;}.cls-10,.cls-8,.cls-9{fill:#f26935;}.cls-8{stroke-width:1.82px;}.cls-9{stroke-width:0.91px;}.cls-10{stroke-width:0.91px;}</style></defs><title>icon-card-pricing</title><g id="Layer_1" data-name="Layer 1"><path class="cls-1" d="M154.31,29.28H54.86a12.5,12.5,0,0,1-12.5-12.5v-.21A12.5,12.5,0,0,1,54.86,4.09h89.73a14.47,14.47,0,0,0,9.73,25.19Z"/><path class="cls-2" d="M154.31,29.29V138.45H54.86A12.5,12.5,0,0,1,42.36,126V16.79a12.5,12.5,0,0,0,12.5,12.5Z"/><path class="cls-3" d="M144.84,4.09V25.53a14.47,14.47,0,0,1,0-21.44Z"/><polygon class="cls-4" points="113.57 38.82 114.9 39.96 116.6 39.51 115.92 41.13 116.87 42.61 115.12 42.47 114.01 43.83 113.61 42.12 111.97 41.48 113.47 40.57 113.57 38.82"/><polygon class="cls-5" points="140.05 50.63 142.72 52.92 146.12 52.02 144.76 55.27 146.67 58.23 143.16 57.94 140.94 60.67 140.13 57.25 136.85 55.98 139.85 54.14 140.05 50.63"/><path class="cls-6" d="M130.27,72.21c1.86-2,6.55-5,9.06-2.34,1.26,1.36.81,2.91-1.22,3.2a9.79,9.79,0,0,1-2.56-.21,21.78,21.78,0,0,1-5.41-1.61c-.72-.31-1.34.74-.62,1.06,2.34,1,13.34,4.63,11.6-1.81-.6-2.21-2.95-2.95-5-2.75a10.56,10.56,0,0,0-6.71,3.6C128.87,71.93,129.74,72.8,130.27,72.21Z"/><path class="cls-6" d="M129.15,104.16a9.35,9.35,0,0,1-2.94-12c1.91-3.45,8.22-7.3,11.41-3l.53-.92a9.7,9.7,0,0,1-7.88-16,.62.62,0,0,0-.12-1c-5.94-2.71-11.18-8.46-11-15.34a12.45,12.45,0,0,1,3.75-8.5,10.64,10.64,0,0,1,4.29-2.61,8.72,8.72,0,0,1,2.16-.37,6.2,6.2,0,0,1,1.58.09q2.61.24.36,2.9a.61.61,0,0,0-1.06.62c1.78,3.08,5.76-.35,3.64-3.19C131,41.08,124.56,44,122,46.55c-8.74,8.6-2,21.39,7.53,25.76l-.12-1c-2.7,3.32-3.79,7.69-1.86,11.68a11.5,11.5,0,0,0,10.6,6.37c.42,0,.82-.53.53-.92-3.37-4.52-10-1.91-12.77,1.86a10.57,10.57,0,0,0,2.63,14.87c.64.46,1.25-.6.62-1.06Z"/><path class="cls-7" d="M108.32,79.38V76.89a13.88,13.88,0,0,0-.62-4.27,11.33,11.33,0,0,0-1.8-3.5,8.66,8.66,0,0,0-2.85-2.4,8.05,8.05,0,0,0-3.76-.89,11.38,11.38,0,0,0-7.47,2.29A8.24,8.24,0,0,0,89,74.86a5.85,5.85,0,0,0,.66,2.62,8.94,8.94,0,0,0,2,2.56,12.79,12.79,0,0,0,3.22,2.13,18.12,18.12,0,0,0,4.4,1.4,29.37,29.37,0,0,1,8.32,2.72,18.9,18.9,0,0,1,5.19,3.89,12.29,12.29,0,0,1,2.64,4.38,13.54,13.54,0,0,1,.72,4.2,18.23,18.23,0,0,1-.69,4.47,12.84,12.84,0,0,1-2.68,5,15.74,15.74,0,0,1-5.63,4,22.75,22.75,0,0,1-9.49,1.64q-.34,0-1.68-.11a14.85,14.85,0,0,1-3.19-.69,22.13,22.13,0,0,1-4-1.73,15.86,15.86,0,0,1-4-3.21A19.5,19.5,0,0,1,81.44,103a25.39,25.39,0,0,1-2-7.64l9.28-.5a13.93,13.93,0,0,0,2,6.39A11,11,0,0,0,94,104.49a8.18,8.18,0,0,0,3.19,1.22q1.44.17,1.78.18a9.87,9.87,0,0,0,3.33-.66,8.88,8.88,0,0,0,2.56-1.5,7.11,7.11,0,0,0,1.65-2,5,5,0,0,0,.62-2.35,5.31,5.31,0,0,0-2.17-4q-2.18-1.89-7.82-3.26a27.84,27.84,0,0,1-8.36-3.26,22.44,22.44,0,0,1-5.42-4.53,16.1,16.1,0,0,1-2.94-5,13.57,13.57,0,0,1-.89-4.54,19.79,19.79,0,0,1,1-6.08A15.54,15.54,0,0,1,84,63a18,18,0,0,1,6.17-4.24,23.33,23.33,0,0,1,9.45-1.64,24.31,24.31,0,0,1,9.4,2.46,19.48,19.48,0,0,1,3.45,2.27,15.64,15.64,0,0,1,3,3.34,16.52,16.52,0,0,1,2.13,4.61,21,21,0,0,1,.78,6.09,14.73,14.73,0,0,1-.14,1.55q-.14,1.08-.28,2.35Zm-6.65-16.7-8.4,0,.1-23,9.34,0Zm-7.73,65.09L94,107.95l7.73,0-.08,19.83Z"/><polygon class="cls-8" points="70.65 68.09 68.04 67.01 65.67 68.54 65.9 65.73 63.71 63.95 66.45 63.3 67.47 60.67 68.94 63.08 71.75 63.23 69.92 65.37 70.65 68.09"/><polygon class="cls-9" points="78.43 52.37 77.13 51.83 75.94 52.6 76.05 51.19 74.96 50.3 76.33 49.98 76.84 48.66 77.57 49.86 78.98 49.94 78.06 51.01 78.43 52.37"/><polygon class="cls-10" points="121.99 128.46 120.69 127.92 119.51 128.68 119.62 127.28 118.53 126.39 119.9 126.06 120.4 124.75 121.14 125.95 122.54 126.03 121.63 127.1 121.99 128.46"/></g></svg>