<svg xmlns="http://www.w3.org/2000/svg" viewBox="0 0 77.49 77.49"><defs><style>.cls-1{fill:#fff;}.cls-2{fill:none;}.cls-3{fill:#f26738;}</style></defs><title>icon-footer-ins-orange</title><g id="Layer_1" data-name="Layer 1"><circle class="cls-1" cx="38.81" cy="38.75" r="37.4"/><path class="cls-2" d="M49.93,38.71a11.06,11.06,0,1,1-21.27-4.25H22.47V51a4,4,0,0,0,4,4H51a4,4,0,0,0,4-4V34.46H49.08A11,11,0,0,1,49.93,38.71Z"/><path class="cls-2" d="M31.7,38.75A7.17,7.17,0,1,0,44.6,34.46H33.12A7.13,7.13,0,0,0,31.7,38.75Z"/><rect class="cls-2" x="47.35" y="23.08" width="7.02" height="7.02"/><path class="cls-3" d="M50.91,18.58H26.71a8.07,8.07,0,0,0-8.07,8.07v24.2a8.07,8.07,0,0,0,8.07,8.07h24.2A8.07,8.07,0,0,0,59,50.85V26.64A8.07,8.07,0,0,0,50.91,18.58Zm-3.57,4.5h7v7h-7ZM55,51a4,4,0,0,1-4,4H26.49a4,4,0,0,1-4-4V34.46h6.19a11.06,11.06,0,0,1,20.42,0H55Z"/><path class="cls-3" d="M49.08,34.45a11.07,11.07,0,1,0,.85,4.26A11.07,11.07,0,0,0,49.08,34.45ZM38.86,45.91A7.18,7.18,0,1,1,46,38.74,7.17,7.17,0,0,1,38.86,45.91Z"/></g></svg>