<svg xmlns="http://www.w3.org/2000/svg" viewBox="0 0 188.01 127.42"><defs><style>.cls-1,.cls-10,.cls-9{fill:#fff;}.cls-1,.cls-12,.cls-2,.cls-9{stroke:#00b8b5;}.cls-1,.cls-10,.cls-2,.cls-3,.cls-4,.cls-5,.cls-6,.cls-7{stroke-linecap:round;stroke-linejoin:round;}.cls-1,.cls-2,.cls-3{stroke-width:2.2px;}.cls-2,.cls-3{fill:#663695;}.cls-3{stroke:#00b8b4;}.cls-12,.cls-4,.cls-5{fill:#f26935;}.cls-4,.cls-5,.cls-6,.cls-7{stroke:#f26935;}.cls-4{stroke-width:0.81px;}.cls-5{stroke-width:1.63px;}.cls-11,.cls-6,.cls-7{fill:#f26739;}.cls-6{stroke-width:1.01px;}.cls-7{stroke-width:2.03px;}.cls-8{fill:#00b8b5;}.cls-12,.cls-9{stroke-miterlimit:10;}.cls-9{stroke-width:1.22px;}.cls-10{stroke:#f26739;stroke-width:1.22px;}.cls-12{stroke-width:1.02px;}</style></defs><title>icon-tutorials</title><g id="Layer_1" data-name="Layer 1"><path class="cls-1" d="M144.73,26.13H56.05A11.14,11.14,0,0,1,44.91,15v-.18A11.14,11.14,0,0,1,56.05,3.67h80a12.9,12.9,0,0,0,8.67,22.46Z"/><path class="cls-2" d="M144.73,26.14v97.34H56.05a11.14,11.14,0,0,1-11.14-11.14V15A11.14,11.14,0,0,0,56.05,26.14Z"/><path class="cls-3" d="M136.28,3.67V22.79a12.9,12.9,0,0,1,0-19.11Z"/><polygon class="cls-4" points="98.3 58.86 97.14 58.38 96.08 59.06 96.18 57.81 95.21 57.02 96.43 56.72 96.88 55.55 97.54 56.62 98.79 56.69 97.97 57.65 98.3 58.86"/><polygon class="cls-5" points="116.56 100.51 114.24 99.54 112.13 100.91 112.33 98.4 110.38 96.82 112.83 96.23 113.73 93.89 115.04 96.03 117.55 96.17 115.92 98.08 116.56 100.51"/><polygon class="cls-6" points="104.85 37.68 106.26 38.34 107.62 37.55 107.42 39.1 108.59 40.15 107.05 40.44 106.42 41.88 105.67 40.51 104.11 40.35 105.18 39.21 104.85 37.68"/><polygon class="cls-7" points="130.41 41.52 133.25 42.85 135.96 41.27 135.57 44.38 137.92 46.47 134.84 47.06 133.57 49.93 132.06 47.18 128.94 46.87 131.08 44.58 130.41 41.52"/><path class="cls-8" d="M127.15,62.4c1.12-2.19,4.42-5.9,7.23-4.18,1.42.87,1.4,2.31-.28,3a8.72,8.72,0,0,1-2.25.43,19.39,19.39,0,0,1-5-.1c-.69-.1-1,1-.29,1.05,2.25.32,12.57.8,9.54-4.31-1-1.76-3.24-1.83-5-1.17a9.41,9.41,0,0,0-4.9,4.68C125.89,62.48,126.83,63,127.15,62.4Z"/><path class="cls-8" d="M133.81,90.11a8.35,8.35,0,0,1-5.4-9.68c.91-3.58,5.36-8.1,9.18-5.2l.13-1A8.65,8.65,0,0,1,127.15,62.4c.12-.29.06-.74-.33-.8C121.08,60.68,115.18,57,113.69,51a11.17,11.17,0,0,1,1.06-7.93A9.78,9.78,0,0,1,117,40.3a8.28,8.28,0,0,1,2.42-1.44l.6-.2q2.46-1.1,2.09,2.21c-.52-.47-1.29.3-.77.77,2.35,2.16,4.81-1.61,2.4-3.57-3.37-2.75-8.39,1.66-9.94,4.49-5.17,9.45,3.56,18.64,12.73,20.1l-.33-.8A9.75,9.75,0,0,0,138,75.29a.55.55,0,0,0,.13-1c-4.11-3.12-9.27,1.17-10.59,5.17a9.45,9.45,0,0,0,6,11.7c.66.25.94-.81.29-1.05Z"/><path class="cls-9" d="M98.88,83.59l-34.46,26a3.67,3.67,0,0,1-5.1-1h0a3.67,3.67,0,0,1,1-5.1l36-23.77C99.55,77.75,101.87,81.29,98.88,83.59Z"/><path class="cls-10" d="M118.48,82.82l-7.25-1.27a.88.88,0,0,0-.78.25L105.3,87a.88.88,0,0,1-1.5-.49l-1-7.29a.88.88,0,0,0-.48-.66L95.7,75.33a.88.88,0,0,1,0-1.58l6.61-3.23a.88.88,0,0,0,.48-.66l1.08-7.28a.88.88,0,0,1,1.5-.48l5.12,5.29a.88.88,0,0,0,.78.26l7.26-1.22a.88.88,0,0,1,.92,1.28L116,74.2a.88.88,0,0,0,0,.82l3.4,6.53A.88.88,0,0,1,118.48,82.82Z"/><path class="cls-11" d="M115.13,80.06l-4.65-.81a.68.68,0,0,0-.6.19l-3.3,3.37a.68.68,0,0,1-1.15-.38l-.66-4.67a.68.68,0,0,0-.37-.51l-4.22-2.1a.68.68,0,0,1,0-1.22l4.24-2.07a.68.68,0,0,0,.37-.51l.69-4.67a.68.68,0,0,1,1.16-.37l3.28,3.39a.68.68,0,0,0,.6.2l4.65-.78a.68.68,0,0,1,.71,1l-2.21,4.17a.68.68,0,0,0,0,.63l2.18,4.18A.68.68,0,0,1,115.13,80.06Z"/><rect class="cls-12" x="67.11" y="97.65" width="2.63" height="9.17" rx="1.32" ry="1.32" transform="translate(-45.26 55.24) rotate(-33.75)"/><rect class="cls-12" x="69.3" y="96.18" width="2.63" height="9.17" rx="1.32" ry="1.32" transform="translate(-44.08 56.21) rotate(-33.75)"/><rect class="cls-12" x="71.48" y="94.72" width="2.63" height="9.17" rx="1.32" ry="1.32" transform="matrix(0.83, -0.56, 0.56, 0.83, -42.9, 57.18)"/></g></svg>