<svg xmlns="http://www.w3.org/2000/svg" viewBox="0 0 194.97 188.31"><defs><style>.cls-1{fill:#00b8b5;stroke:#00b8b5;stroke-width:4.3px;}.cls-1,.cls-3,.cls-4,.cls-5{stroke-linecap:round;stroke-linejoin:round;}.cls-2{fill:#fff;}.cls-3,.cls-4{fill:#f26739;}.cls-3,.cls-4,.cls-5{stroke:#f26935;}.cls-3{stroke-width:0.93px;}.cls-4{stroke-width:1.86px;}.cls-5{fill:#f26738;stroke-width:3px;}</style></defs><title>icon-home-85</title><g id="Layer_1" data-name="Layer 1"><path class="cls-1" d="M147.09,178.54,99.7,153.91a5.13,5.13,0,0,0-4.77,0L47.77,179a5.13,5.13,0,0,1-7.47-5.37l8.79-52.68a5.13,5.13,0,0,0-1.5-4.53L9.18,79.3A5.13,5.13,0,0,1,12,70.54L64.8,62.62a5.13,5.13,0,0,0,3.85-2.82l23.42-48a5.13,5.13,0,0,1,9.2,0l23.85,47.79A5.13,5.13,0,0,0,129,62.33l52.89,7.44a5.13,5.13,0,0,1,2.88,8.74L146.69,116a5.13,5.13,0,0,0-1.45,4.55l9.27,52.6A5.13,5.13,0,0,1,147.09,178.54Z"/><path class="cls-2" d="M93.08,112.34a21.69,21.69,0,0,1-.78,6.1,17.77,17.77,0,0,1-2.09,4.68,15.33,15.33,0,0,1-3,3.42,16.74,16.74,0,0,1-3.42,2.26A16.05,16.05,0,0,1,80.35,130a14.09,14.09,0,0,1-3.1.39,22.87,22.87,0,0,1-3.17-.24,15.36,15.36,0,0,1-3.47-.93,13.53,13.53,0,0,1-3.4-2,12.4,12.4,0,0,1-2.91-3.38,18.66,18.66,0,0,1-2-5.1,29.43,29.43,0,0,1-.77-7.19q0-.48.09-1.74a19.68,19.68,0,0,1,1.62-6.29,12.54,12.54,0,0,1,2.15-3.32,11.69,11.69,0,0,1,3.43-2.59,12.69,12.69,0,0,1,5-1.25L74,98.56a9.69,9.69,0,0,1-3.28-.65,8.66,8.66,0,0,1-2.46-1.49,9.54,9.54,0,0,1-1.77-2.05A14.35,14.35,0,0,1,65.23,92,18.62,18.62,0,0,1,64,85.8a11.67,11.67,0,0,1,4.16-9.28,12.87,12.87,0,0,1,4.14-2.33,14,14,0,0,1,4.54-.78,11.82,11.82,0,0,1,4.87,1,12.25,12.25,0,0,1,3.94,2.78,12.9,12.9,0,0,1,2.63,4.18,13.94,13.94,0,0,1,1,5.17,20.74,20.74,0,0,1-1.34,5.34A17.56,17.56,0,0,1,86.77,94a13.84,13.84,0,0,1-1.49,2.07,10.54,10.54,0,0,1-2,1.77,10.25,10.25,0,0,1-2.59,1.27L81,96.81A13,13,0,0,1,84.92,98a13.65,13.65,0,0,1,3,2A12.35,12.35,0,0,1,90,102.5a16.66,16.66,0,0,1,1.44,2.74A22.11,22.11,0,0,1,93.08,112.34Zm-7.17,1.19a24.37,24.37,0,0,0-.78-6.85,10.7,10.7,0,0,0-2-4,6.08,6.08,0,0,0-2.78-1.89,10.23,10.23,0,0,0-3-.47,9.54,9.54,0,0,0-3,.52,6.88,6.88,0,0,0-2.89,2,11,11,0,0,0-2.17,4,22,22,0,0,0-.84,6.68,17.82,17.82,0,0,0,.84,5.75,13.59,13.59,0,0,0,2.17,4.13,9.21,9.21,0,0,0,2.89,2.48,6.51,6.51,0,0,0,3,.82,7.41,7.41,0,0,0,3-.67,7.52,7.52,0,0,0,2.78-2.2,12,12,0,0,0,2-4.07A21.38,21.38,0,0,0,85.91,113.53Zm-3-26.8a13.47,13.47,0,0,0-.54-4,8.68,8.68,0,0,0-1.44-2.84,6.06,6.06,0,0,0-2-1.68,5,5,0,0,0-2.28-.56,5.88,5.88,0,0,0-2.28.47,5.25,5.25,0,0,0-2,1.55,8.21,8.21,0,0,0-1.44,2.82,14.53,14.53,0,0,0-.54,4.27,11.83,11.83,0,0,0,.54,3.68,9.75,9.75,0,0,0,1.44,2.86,7.1,7.1,0,0,0,2,1.87,4.38,4.38,0,0,0,2.28.67,4.67,4.67,0,0,0,2.28-.62,6.56,6.56,0,0,0,2-1.77,9.18,9.18,0,0,0,1.44-2.86A12.59,12.59,0,0,0,82.92,86.73Z"/><path class="cls-2" d="M125,115.14a22.55,22.55,0,0,1-1.75,8.12,14,14,0,0,1-3.53,4.87,11.17,11.17,0,0,1-4.5,2.37,19,19,0,0,1-4.67.62,13.48,13.48,0,0,1-4.44-.82,11.57,11.57,0,0,1-4.37-2.84,15.56,15.56,0,0,1-3.34-5.37,23.05,23.05,0,0,1-1.33-8.4q0-1.16.07-2.31t.26-2.5l6.5-.22q-.19,1.57-.3,2.91t-.11,2.54a23.27,23.27,0,0,0,.5,5.26,14.25,14.25,0,0,0,1.27,3.53,7.41,7.41,0,0,0,1.68,2.17,7.21,7.21,0,0,0,1.74,1.12,4.79,4.79,0,0,0,1.47.41l.84.06a5.19,5.19,0,0,0,3-1,8.59,8.59,0,0,0,2.46-2.78,15.8,15.8,0,0,0,1.64-4.27,23.6,23.6,0,0,0,.6-5.51,20.79,20.79,0,0,0-.78-6.18,12,12,0,0,0-2-4,7.13,7.13,0,0,0-2.69-2.13,7.21,7.21,0,0,0-2.86-.63,24.83,24.83,0,0,0-3,.34,16.89,16.89,0,0,0-2.65.71,7.87,7.87,0,0,0-2.39,1.31l-3.51-1.61,1.61-24.75h22.25v6H102.86l2.91-2.46L103.64,99l-2.24-1a8.57,8.57,0,0,1,2.69-1.51,19,19,0,0,1,3-.8,20.61,20.61,0,0,1,2.61-.32l1.57-.06a12.63,12.63,0,0,1,5.17,1.1,12.35,12.35,0,0,1,4.39,3.32,17.07,17.07,0,0,1,3.06,5.52A23.33,23.33,0,0,1,125,113c0,.35,0,.7,0,1S125,114.76,125,115.14Z"/><path class="cls-2" d="M138.25,83.08a9.4,9.4,0,0,1-.4,2.79,8,8,0,0,1-1.09,2.27,5.51,5.51,0,0,1-1.58,1.52,3.49,3.49,0,0,1-1.87.55,3.54,3.54,0,0,1-1.88-.55,5.45,5.45,0,0,1-1.59-1.52,8,8,0,0,1-1.09-2.27,9.38,9.38,0,0,1-.4-2.79q0-3.68,1.25-5.41a4.28,4.28,0,0,1,3.71-1.73,4.23,4.23,0,0,1,3.75,1.73A9.72,9.72,0,0,1,138.25,83.08Zm-2.76,0a19,19,0,0,0-.13-2.43,6,6,0,0,0-.4-1.61,2.06,2.06,0,0,0-.69-.9,1.65,1.65,0,0,0-1-.28,1.53,1.53,0,0,0-.92.29,2.17,2.17,0,0,0-.67.95,6.87,6.87,0,0,0-.41,1.69,19,19,0,0,0-.14,2.51,12.46,12.46,0,0,0,.14,1.93,7,7,0,0,0,.42,1.59,3.28,3.28,0,0,0,.69,1.09,1.2,1.2,0,0,0,1.81,0,3.39,3.39,0,0,0,.69-1.13,8,8,0,0,0,.44-1.67A12.67,12.67,0,0,0,135.48,83.08ZM135,100.51l-2.35-.37,11.45-25.66,2.59.85Zm16.06-7.77a9.6,9.6,0,0,1-.4,2.82,8,8,0,0,1-1.09,2.29A5.44,5.44,0,0,1,148,99.37a3.55,3.55,0,0,1-1.88.56,3.49,3.49,0,0,1-1.87-.56,5.49,5.49,0,0,1-1.58-1.52,8,8,0,0,1-1.09-2.29,9.59,9.59,0,0,1-.4-2.82,9.26,9.26,0,0,1,1.25-5.39,4.89,4.89,0,0,1,7.45,0A9.59,9.59,0,0,1,151.09,92.75Zm-2.76,0a18.82,18.82,0,0,0-.13-2.41,5.61,5.61,0,0,0-.41-1.6,2,2,0,0,0-.7-.88,1.7,1.7,0,0,0-1-.27,1.52,1.52,0,0,0-.91.28,2.13,2.13,0,0,0-.66.92,6.67,6.67,0,0,0-.41,1.67A18.89,18.89,0,0,0,144,93a12.82,12.82,0,0,0,.14,2,7,7,0,0,0,.42,1.6,3.28,3.28,0,0,0,.67,1.08,1.23,1.23,0,0,0,.89.39,1.27,1.27,0,0,0,.91-.41,3.27,3.27,0,0,0,.7-1.13,8.06,8.06,0,0,0,.44-1.68A13,13,0,0,0,148.32,92.75Z"/><polygon class="cls-3" points="163.47 36.53 164.86 36.88 165.94 35.94 166.03 37.38 167.26 38.11 165.92 38.64 165.6 40.04 164.69 38.93 163.26 39.06 164.03 37.85 163.47 36.53"/><polygon class="cls-3" points="157.1 17.3 158.49 17.66 159.57 16.72 159.66 18.15 160.88 18.89 159.55 19.42 159.23 20.82 158.31 19.71 156.89 19.83 157.66 18.62 157.1 17.3"/><polygon class="cls-4" points="145 26.46 147.78 27.18 149.95 25.3 150.12 28.16 152.59 29.64 149.91 30.7 149.27 33.49 147.44 31.28 144.58 31.53 146.12 29.11 145 26.46"/><polygon class="cls-5" points="141.94 49.99 146.51 49.17 148.43 44.95 150.61 49.05 155.22 49.57 152 52.91 152.93 57.45 148.76 55.43 144.72 57.71 145.36 53.12 141.94 49.99"/><polygon class="cls-3" points="137.29 18.95 135.94 19.42 135.57 20.81 134.7 19.67 133.26 19.74 134.08 18.56 133.56 17.22 134.94 17.63 136.05 16.73 136.09 18.16 137.29 18.95"/><polygon class="cls-5" points="133.4 32.43 130.06 35.65 130.83 40.23 126.73 38.05 122.61 40.19 123.42 35.62 120.11 32.37 124.7 31.72 126.78 27.57 128.81 31.74 133.4 32.43"/></g></svg>