<svg xmlns="http://www.w3.org/2000/svg" viewBox="0 0 188.01 127.42"><defs><style>.cls-1{fill:#663695;stroke-width:2.4px;}.cls-1,.cls-6{stroke:#00b8b5;stroke-miterlimit:10;}.cls-2,.cls-6{fill:#fff;}.cls-2,.cls-4,.cls-5,.cls-7,.cls-8{stroke:#f26935;stroke-linecap:round;stroke-linejoin:round;}.cls-2{stroke-width:2.4px;}.cls-3,.cls-7,.cls-8{fill:#f26739;}.cls-4,.cls-5{fill:#f26935;}.cls-4{stroke-width:0.93px;}.cls-5{stroke-width:1.86px;}.cls-6{stroke-width:2px;}.cls-7{stroke-width:1.15px;}.cls-8{stroke-width:2.3px;}.cls-9{fill:#00b8b5;}</style></defs><title>icon-editing</title><g id="Layer_1" data-name="Layer 1"><path class="cls-1" d="M86.45,59.44,29,121.59a7.2,7.2,0,0,1-10.18-.08h0a7.2,7.2,0,0,1,.08-10.18L80.13,53C85.72,47.94,91.43,54,86.45,59.44Z"/><path class="cls-2" d="M124,51.16l-14.43.06a1.72,1.72,0,0,0-1.42.75L100,63.89A1.72,1.72,0,0,1,97,63.46L92.45,49.75a1.72,1.72,0,0,0-1.15-1.12l-13.85-4a1.72,1.72,0,0,1-.54-3L88.54,33a1.72,1.72,0,0,0,.7-1.44l-.43-14.43a1.72,1.72,0,0,1,2.73-1.45l11.71,8.43a1.72,1.72,0,0,0,1.59.22l13.59-4.87a1.72,1.72,0,0,1,2.22,2.15l-4.4,13.75a1.72,1.72,0,0,0,.28,1.58l8.83,11.42A1.72,1.72,0,0,1,124,51.16Z"/><path class="cls-3" d="M116.6,47l-9.25,0a1.33,1.33,0,0,0-1.09.58L101,55.26a1.33,1.33,0,0,1-2.36-.33l-2.9-8.78a1.33,1.33,0,0,0-.89-.86L86,42.69a1.33,1.33,0,0,1-.41-2.35l7.46-5.47a1.33,1.33,0,0,0,.54-1.11l-.28-9.25a1.33,1.33,0,0,1,2.1-1.12l7.51,5.4a1.33,1.33,0,0,0,1.22.17l8.71-3.12a1.33,1.33,0,0,1,1.71,1.66l-2.82,8.81a1.33,1.33,0,0,0,.21,1.22l5.66,7.32A1.33,1.33,0,0,1,116.6,47Z"/><polygon class="cls-4" points="105.96 17.65 104.64 17.1 103.43 17.88 103.54 16.45 102.43 15.54 103.83 15.21 104.34 13.87 105.09 15.1 106.53 15.18 105.59 16.27 105.96 17.65"/><polygon class="cls-4" points="114.79 60.66 113.46 60.11 112.25 60.89 112.37 59.46 111.26 58.56 112.65 58.22 113.17 56.88 113.92 58.11 115.35 58.19 114.42 59.28 114.79 60.66"/><polygon class="cls-4" points="80.94 29.51 79.62 28.96 78.41 29.74 78.53 28.31 77.41 27.4 78.81 27.07 79.32 25.73 80.07 26.95 81.51 27.03 80.57 28.12 80.94 29.51"/><polygon class="cls-4" points="99.44 76.3 98.12 75.75 96.91 76.53 97.03 75.1 95.91 74.19 97.31 73.86 97.83 72.52 98.57 73.75 100.01 73.82 99.07 74.91 99.44 76.3"/><polygon class="cls-5" points="121.68 73.09 119.02 71.98 116.61 73.54 116.83 70.68 114.6 68.86 117.4 68.19 118.44 65.51 119.94 67.97 122.81 68.12 120.94 70.31 121.68 73.09"/><polygon class="cls-5" points="98.88 10.32 96.23 9.22 93.81 10.78 94.04 7.92 91.81 6.1 94.61 5.43 95.64 2.75 97.14 5.2 100.01 5.36 98.14 7.54 98.88 10.32"/><rect class="cls-6" x="31.55" y="96.98" width="5.16" height="17.98" rx="2.58" ry="2.58" transform="translate(-63.97 53.33) rotate(-43.93)"/><rect class="cls-6" x="35.26" y="93.4" width="5.16" height="17.98" rx="2.58" ry="2.58" transform="translate(-60.45 54.9) rotate(-43.93)"/><rect class="cls-6" x="38.98" y="89.83" width="5.16" height="17.98" rx="2.58" ry="2.58" transform="translate(-56.93 56.48) rotate(-43.93)"/><polygon class="cls-7" points="125.89 6.1 127.11 7.39 128.86 7.12 128.01 8.67 128.81 10.26 127.06 9.93 125.8 11.18 125.58 9.42 124 8.61 125.61 7.85 125.89 6.1"/><polygon class="cls-8" points="151.23 20.8 153.66 23.39 157.18 22.85 155.47 25.97 157.07 29.15 153.57 28.49 151.05 30.99 150.6 27.46 147.44 25.83 150.65 24.31 151.23 20.8"/><path class="cls-9" d="M139.14,41.4A10,10,0,0,1,144,38.93c1.84-.32,5.1,0,4.95,2.52-.23,3.91-8.32-.11-9.92-1a.62.62,0,0,0-.62,1.07c2.35,1.34,12.39,5.93,11.83-.36-.2-2.21-2.22-3.36-4.24-3.53a10.52,10.52,0,0,0-7.71,2.92C137.66,41,138.54,41.92,139.14,41.4Z"/><path class="cls-9" d="M134.61,73.48a9.43,9.43,0,0,1-1.53-12.73c2.41-3.18,9-6,11.61-1.49l.53-.93a10.29,10.29,0,0,1-8.79-6.56c-1.43-3.78-.09-7.61,2.7-10.36a.63.63,0,0,0-.13-1c-5.74-3.4-10.43-9.92-9.32-16.88a12.58,12.58,0,0,1,5.1-8.17A10.66,10.66,0,0,1,139,13.56a8.59,8.59,0,0,1,2.48-.08,4.63,4.63,0,0,1,1.31.23q3.62,1.24,0,2.88c-.32-.73-1.39-.1-1.07.62,1.48,3.32,6,0,3.8-3.1-2.68-3.76-9.1-1.57-12,.71-9.69,7.74-4.23,21.27,4.9,26.68l-.13-1c-3.13,3.09-4.6,7.49-3,11.72a11.6,11.6,0,0,0,9.95,7.31.62.62,0,0,0,.53-.93c-2.83-4.86-9.78-2.89-12.94.49a10.68,10.68,0,0,0,.91,15.23c.59.53,1.47-.34.88-.88Z"/></g></svg>