<svg id="Layer_1" data-name="Layer 1" xmlns="http://www.w3.org/2000/svg" viewBox="0 0 332.84 112.96"><defs><style>.cls-1{fill:#fff;}.cls-2{fill:#f26935;}.cls-3{fill:#00b8b5;}</style></defs><title>icon-logo-colour</title><path class="cls-1" d="M24.82,77.14H2.41l.1-8q1.64.1,3.28.15T9,69.36q.26-10.29.38-20.57t.13-20.73V19.87q0-4.1-.1-8.24l-6.5.92L2.41,3.34q3.07.1,6.14.1H20.7q3,0,6-.1l-.1,6.7-3.45.23-3.45.28q-1.13,14.79-2,29.4t-1.56,29.4q2.25,0,4.38-.13t4.32-.38Z"/><path class="cls-1" d="M76.51,76.48q.61-4.15,1-8t.61-7.32q.2-3.43.28-6.27T78.51,50a44.27,44.27,0,0,0-1.13-11.49q-1.13-3.92-3.58-3.92-1.89,0-4.27,3a36,36,0,0,0-4.73,9.44q.1,1.48.15,3.15T65,53.75q0,4.91-.36,10.7T63.31,76.78l-7.52.46q.72-7.22.92-12.95t.21-9.93q0-5.94-.31-9.93A56.18,56.18,0,0,0,55.81,38a11.7,11.7,0,0,0-1.1-3.46q-.61-1-1.23-1-1.13,0-2.64,2.35a63,63,0,0,0-3.66,7,54.23,54.23,0,0,0-3.28,9,83.61,83.61,0,0,0-1.77,8.44q-.64,4.15-1,8.19t-.87,8.14l-7,.21q.1-3.69.1-7.27v-7q0-8.14-.15-14.89t-.31-11.72q-.21-5.78-.41-10.39l9.31.41V42.44q.41-1.43,1.07-3.3t1.54-3.84a35.2,35.2,0,0,1,2-3.89A21.24,21.24,0,0,1,49,28a12.25,12.25,0,0,1,3-2.43,7.19,7.19,0,0,1,3.58-.92q2.71,0,5,2.84t3.3,8.67a24.26,24.26,0,0,1,3.84-5.58,17.8,17.8,0,0,1,3.56-2.94A9,9,0,0,1,74,26.48a10.49,10.49,0,0,1,1.33-.21,8.93,8.93,0,0,1,4,1A8.56,8.56,0,0,1,82.78,31a25.74,25.74,0,0,1,2.41,7.6,71.93,71.93,0,0,1,.9,12.59q0,5.07-.41,11.39T84.39,76.78Z"/><path class="cls-1" d="M136.08,49.25q-.1,5.17-.31,10.29-.1,2.2-.2,4.61T135.34,69q-.13,2.43-.31,4.79t-.33,4.4l-7-.2q.1-1.48.15-2.92t.05-2.87A19.27,19.27,0,0,1,123,76a27.47,27.47,0,0,1-4.86,2.1,24.71,24.71,0,0,1-5.27,1.13,5.88,5.88,0,0,1-1,.1h-1a23.37,23.37,0,0,1-6.86-1,17,17,0,0,1-5.81-3,14.89,14.89,0,0,1-4-5.14,16.47,16.47,0,0,1-1.51-7.29A16.74,16.74,0,0,1,94,55.93a17.28,17.28,0,0,1,4.09-5.68,19.68,19.68,0,0,1,6.37-3.86,24.55,24.55,0,0,1,8.29-1.54l1.74.1a24.19,24.19,0,0,1,3.86.64,29,29,0,0,1,4.91,1.69,18,18,0,0,1,4.89,3.2q0-2.3-.1-4.86a44.81,44.81,0,0,0-.49-5,25.06,25.06,0,0,0-1.2-4.73,13.45,13.45,0,0,0-2.23-4,9.94,9.94,0,0,0-3.56-2.71,12.34,12.34,0,0,0-5.22-1,10.39,10.39,0,0,0-4.4.92,11.73,11.73,0,0,0-3.53,2.51,13.82,13.82,0,0,0-2.56,3.76A20.62,20.62,0,0,0,103.38,40l-8.6-2.76a20.68,20.68,0,0,1,1.77-5.17,19.8,19.8,0,0,1,2.61-3.94,18.32,18.32,0,0,1,3.12-2.89,24,24,0,0,1,3.3-2,23.44,23.44,0,0,1,8.29-2.3,26.1,26.1,0,0,1,10.39,1.84,16.54,16.54,0,0,1,6.88,5.43,23.06,23.06,0,0,1,3.79,8.85A57.5,57.5,0,0,1,136.08,49.25Zm-8,14.23q0-1,.05-2c0-.67.05-1.3.05-1.92a23.21,23.21,0,0,0-5.35-4.2,30.42,30.42,0,0,0-4.79-2.15,17.54,17.54,0,0,0-4.76-.92,14.9,14.9,0,0,0-5.45.9,10.58,10.58,0,0,0-3.74,2.38A9.35,9.35,0,0,0,102,58.92a11.4,11.4,0,0,0-.69,3.94,9,9,0,0,0,.77,3.79,8,8,0,0,0,2.18,2.87,9.93,9.93,0,0,0,3.43,1.82,14.94,14.94,0,0,0,4.53.64,21,21,0,0,0,5.12-1.13,27.4,27.4,0,0,0,5.09-2.53A28.19,28.19,0,0,0,128.1,63.48Z"/><path class="cls-1" d="M180.51,26.07a20.59,20.59,0,0,1,3.68,5.14,31,31,0,0,1,2.25,5.86,37.63,37.63,0,0,1,1.13,6,55.9,55.9,0,0,1,.31,5.63,46.39,46.39,0,0,1-1,9.85,36.77,36.77,0,0,1-2.64,7.78,25.9,25.9,0,0,1-3.79,5.86,23.06,23.06,0,0,1-4.53,4A18.14,18.14,0,0,1,171,78.6a16.55,16.55,0,0,1-4.73.74,20.51,20.51,0,0,1-3.61-.31,26.74,26.74,0,0,1-3.2-.77,16.53,16.53,0,0,0-2.38,2.1,17.93,17.93,0,0,0-1.82,2.28,10.76,10.76,0,0,0-1.18,2.28,6.27,6.27,0,0,0-.41,2.15,3.44,3.44,0,0,0,1,2.66,2.91,2.91,0,0,0,1.92.92,5.72,5.72,0,0,0,2.71-.74A23.54,23.54,0,0,0,162.21,88q1.51-1.13,3.17-2.43a38.11,38.11,0,0,1,3.48-2.43,20.69,20.69,0,0,1,3.86-1.87,12.65,12.65,0,0,1,4.35-.74,13.77,13.77,0,0,1,3.94.56,12.48,12.48,0,0,1,3.51,1.66,11.15,11.15,0,0,1,2.79,2.74,12.07,12.07,0,0,1,1.79,3.84,9,9,0,0,1,.33,1.69q.08.82.08,1.69a14.68,14.68,0,0,1-2,7.63,17.66,17.66,0,0,1-5.3,5.6,24.55,24.55,0,0,1-7.75,3.43,37.18,37.18,0,0,1-9.39,1.15,31.82,31.82,0,0,1-3.81-.23,26.87,26.87,0,0,1-3.81-.74l.92-4.61a14.49,14.49,0,0,0,2,.36,19.26,19.26,0,0,0,2,.1,22.51,22.51,0,0,0,4.55-.44,26.15,26.15,0,0,0,3.63-1,22.69,22.69,0,0,0,3.33-1.43,20.73,20.73,0,0,0,5.91-4.45,6.73,6.73,0,0,0,1.77-4.25,5.33,5.33,0,0,0-.38-2,5.72,5.72,0,0,0-1-1.69A4.94,4.94,0,0,0,178.56,89a4.75,4.75,0,0,0-2-.43,9.68,9.68,0,0,0-4.15,1.15,24.22,24.22,0,0,0-5.27,3.76A17.16,17.16,0,0,1,162,96.64a14.88,14.88,0,0,1-5.37,1,12.69,12.69,0,0,1-3.61-.54,11.19,11.19,0,0,1-3.28-1.56A8.51,8.51,0,0,1,147.32,93a6.82,6.82,0,0,1-.95-3.61,12,12,0,0,1,.51-3.35,15.79,15.79,0,0,1,1.54-3.53A21,21,0,0,1,151,79a24.7,24.7,0,0,1,3.45-3.17,19.51,19.51,0,0,1-5.12-5.4A32.45,32.45,0,0,1,146,63.58a39.43,39.43,0,0,1-1.82-7.6,55.84,55.84,0,0,1-.54-7.6,41.88,41.88,0,0,1,1.66-12.54,25,25,0,0,1,4.55-8.7,17.85,17.85,0,0,1,6.81-5.07,21.73,21.73,0,0,1,8.47-1.64,28.19,28.19,0,0,1,5.12.44,24.45,24.45,0,0,1,4.35,1.2l5-12.74L187,14.55Zm0,22.57q0-1.58-.13-3.58a29.55,29.55,0,0,0-.56-4.09,27,27,0,0,0-1.23-4.17A16.17,16.17,0,0,0,176.51,33l-4.61,8.19-4-2.2L171.81,29a17.31,17.31,0,0,0-2.92-.92,15.84,15.84,0,0,0-3.48-.36q-7.47.31-11,5.58T151,48.28a42.83,42.83,0,0,0,1.25,11.21,23.16,23.16,0,0,0,3.25,7.34,12.3,12.3,0,0,0,4.48,4,11.05,11.05,0,0,0,4.94,1.23,12.38,12.38,0,0,0,5.35-1.3,14.5,14.5,0,0,0,5-4.15A23.07,23.07,0,0,0,179,59.36,35.46,35.46,0,0,0,180.51,48.64Z"/><path class="cls-2" d="M247.5,47.87a4,4,0,0,0-.05,1.1c0,.36.05.73.05,1.1a31.17,31.17,0,0,0,1,8.62,20.63,20.63,0,0,0,2.58,5.81A12.56,12.56,0,0,0,254.54,68,16.77,16.77,0,0,0,258,69.85a11.52,11.52,0,0,0,2.81.69q1.18.1,1.43.1l.72-.08a13.55,13.55,0,0,0,2-.41,18.6,18.6,0,0,0,2.84-1,13.72,13.72,0,0,0,3.15-2A16.51,16.51,0,0,0,276.21,59l6.29,1.79a24.77,24.77,0,0,1-2,5.63,23.22,23.22,0,0,1-2.84,4.3,19.82,19.82,0,0,1-3.33,3.15A22,22,0,0,1,270.84,76a22.37,22.37,0,0,1-8.55,2.41,21.67,21.67,0,0,1-8-1.36,19,19,0,0,1-6-3.66,21.63,21.63,0,0,1-4.2-5.27,30.87,30.87,0,0,1-2.69-6.22,40.27,40.27,0,0,1-1.43-6.5,46.21,46.21,0,0,1-.43-6.12q0-2.66.31-5.83A38.93,38.93,0,0,1,241.1,37a30.45,30.45,0,0,1,2.46-6.24,19.67,19.67,0,0,1,4.15-5.37,19.26,19.26,0,0,1,6.22-3.76,24.14,24.14,0,0,1,8.67-1.41q.87,0,2.84.18a19.16,19.16,0,0,1,4.43,1A22.81,22.81,0,0,1,274.93,24a18.21,18.21,0,0,1,4.79,4.79,26.68,26.68,0,0,1,3.58,7.73,39.73,39.73,0,0,1,1.41,11.36Zm14.79-19.81a17.79,17.79,0,0,0-6.5,1.69,14.93,14.93,0,0,0-2.53,1.56,12.93,12.93,0,0,0-2.33,2.3,14.83,14.83,0,0,0-1.89,3.2,15.18,15.18,0,0,0-1.13,4.25H276a14,14,0,0,0-1.64-5.43,15.21,15.21,0,0,0-3.25-4.09A14,14,0,0,0,266.87,29,12.69,12.69,0,0,0,262.29,28.06Z"/><path class="cls-1" d="M323.4,78.17q-.41-7.78-.79-14t-.69-10.62q-.36-5.12-.72-9.11a35.69,35.69,0,0,0-1.56-9.34Q318.49,32,316.69,32t-3.63,2.25a30,30,0,0,0-3.63,6,75.8,75.8,0,0,0-3.4,8.52q-1.61,4.79-3,9.85t-2.35,10q-1,5-1.51,9l-7,.21q.31-8.5.31-16.12,0-8-.26-14.61t-.56-11.44q-.36-5.63-.77-10.13l9.88.41V46.44q1.18-3.38,2.1-5.68T304.41,37q.72-1.69,1.18-2.66a28.11,28.11,0,0,1,2.92-4.48,21,21,0,0,1,3.3-3.33,14.34,14.34,0,0,1,3.48-2.07,9,9,0,0,1,3.4-.72,6.77,6.77,0,0,1,3.07.72,7,7,0,0,1,2.53,2.25,14.7,14.7,0,0,1,1.89,3.92,29.72,29.72,0,0,1,1.2,5.71q.82,5.53,1.43,12.08.56,5.63,1,13.15t.56,16.17Z"/><path class="cls-3" d="M229,51.48a4,4,0,0,0,.05-1.1c0-.36-.05-.72-.05-1.1a31.15,31.15,0,0,0-1-8.62,20.62,20.62,0,0,0-2.58-5.81A12.57,12.57,0,0,0,222,31.31a16.84,16.84,0,0,0-3.51-1.82,11.51,11.51,0,0,0-2.81-.69q-1.18-.1-1.43-.1l-.72.08a13.43,13.43,0,0,0-2,.41,18.69,18.69,0,0,0-2.84,1,13.83,13.83,0,0,0-3.15,2,16.5,16.5,0,0,0-5.19,8.11L194,38.58a24.77,24.77,0,0,1,2-5.63,23.21,23.21,0,0,1,2.84-4.3,19.81,19.81,0,0,1,3.33-3.15,21.9,21.9,0,0,1,3.45-2.12A22.39,22.39,0,0,1,214.23,21a21.65,21.65,0,0,1,8,1.36,18.91,18.91,0,0,1,6,3.66,21.62,21.62,0,0,1,4.2,5.27A30.79,30.79,0,0,1,235,37.48a40.24,40.24,0,0,1,1.43,6.5,46.19,46.19,0,0,1,.44,6.12q0,2.66-.31,5.83a38.86,38.86,0,0,1-1.18,6.4A30.41,30.41,0,0,1,233,68.57a19.72,19.72,0,0,1-4.15,5.37,19.33,19.33,0,0,1-6.22,3.76,24.16,24.16,0,0,1-8.67,1.41q-.87,0-2.84-.18a19.1,19.1,0,0,1-4.43-1,22.8,22.8,0,0,1-5.07-2.56,18.21,18.21,0,0,1-4.79-4.79,26.67,26.67,0,0,1-3.58-7.73,39.71,39.71,0,0,1-1.41-11.36ZM214.23,71.28a17.79,17.79,0,0,0,6.5-1.69A14.93,14.93,0,0,0,223.26,68a12.9,12.9,0,0,0,2.33-2.3,14.78,14.78,0,0,0,1.89-3.2,15.14,15.14,0,0,0,1.13-4.25h-28.1a14,14,0,0,0,1.64,5.42,15.19,15.19,0,0,0,3.25,4.09,14,14,0,0,0,4.25,2.58A12.71,12.71,0,0,0,214.23,71.28Z"/></svg>