<svg xmlns="http://www.w3.org/2000/svg" viewBox="0 0 77.49 77.49"><defs><style>.cls-1{fill:#fff;}.cls-2{fill:#f26738;}</style></defs><title>icon-footer-twit-orange</title><g id="Layer_1" data-name="Layer 1"><circle class="cls-1" cx="38.66" cy="38.87" r="37.4"/><path class="cls-2" d="M56.21,26.18A8.6,8.6,0,0,0,60.11,21a15.58,15.58,0,0,1-5.95,2.27c-1.93-2.67-6.85-3.92-10.61-2.1-3.16,1.53-6.19,4.6-5.27,10.53C28.19,31.57,20.63,24.38,19.19,22a9.16,9.16,0,0,0,2.74,12.49,6.49,6.49,0,0,1-4.23-1.15c0,1,.41,7.69,7.55,9.24-1.14.67-3.26.36-4.26.2a9.12,9.12,0,0,0,8.76,6.46C26.7,51.88,21.33,53.65,16,53,24.8,59.27,37.84,58.6,46,52.32A26.63,26.63,0,0,0,56.79,29.56c1-.16,4.23-3.33,4.55-4.87C60.15,25.31,58,26.35,56.21,26.18Z"/></g></svg>