<svg xmlns="http://www.w3.org/2000/svg" viewBox="0 0 194.97 188.31"><defs><style>.cls-1{fill:#00b8b5;stroke:#00b8b5;stroke-width:4.3px;}.cls-1,.cls-3,.cls-4,.cls-5{stroke-linecap:round;stroke-linejoin:round;}.cls-2{fill:#fff;}.cls-3,.cls-4{fill:#f26739;}.cls-3,.cls-4,.cls-5{stroke:#f26935;}.cls-3{stroke-width:0.93px;}.cls-4{stroke-width:1.86px;}.cls-5{fill:#f26738;stroke-width:3px;}</style></defs><title>icon-home-78</title><g id="Layer_1" data-name="Layer 1"><path class="cls-1" d="M145.16,178.07,97.77,153.44a5.13,5.13,0,0,0-4.77,0L45.84,178.53a5.13,5.13,0,0,1-7.47-5.37l8.79-52.68a5.13,5.13,0,0,0-1.5-4.53L7.25,78.83a5.13,5.13,0,0,1,2.8-8.76l52.82-7.92a5.13,5.13,0,0,0,3.85-2.82l23.42-48a5.13,5.13,0,0,1,9.2,0l23.85,47.79a5.13,5.13,0,0,0,3.87,2.79L180,69.3A5.13,5.13,0,0,1,182.84,78l-38.08,37.45a5.13,5.13,0,0,0-1.45,4.55l9.27,52.6A5.13,5.13,0,0,1,145.16,178.07Z"/><path class="cls-2" d="M84.05,80.81q-2.58,5.53-4.82,11.42t-4,11.93q-1.79,6-3.06,12.11T70.2,128.22l-7.58.3q1.23-6.68,3-13t4-12.64q2.2-6.29,4.8-12.62T79.91,77.3l.78,3.36H58.37l.52-5.6H83Z"/><path class="cls-2" d="M118.66,111.87a21.69,21.69,0,0,1-.78,6.1,17.77,17.77,0,0,1-2.09,4.68,15.33,15.33,0,0,1-3,3.42,16.74,16.74,0,0,1-3.42,2.26,16.05,16.05,0,0,1-3.47,1.25,14.09,14.09,0,0,1-3.1.39,22.87,22.87,0,0,1-3.17-.24,15.36,15.36,0,0,1-3.47-.93,13.53,13.53,0,0,1-3.4-2,12.4,12.4,0,0,1-2.91-3.38,18.66,18.66,0,0,1-2-5.1,29.43,29.43,0,0,1-.77-7.19q0-.48.09-1.74a19.68,19.68,0,0,1,1.62-6.29,12.54,12.54,0,0,1,2.15-3.32,11.69,11.69,0,0,1,3.43-2.59,12.69,12.69,0,0,1,5-1.25l.15,2.13a9.69,9.69,0,0,1-3.28-.65,8.66,8.66,0,0,1-2.46-1.49A9.54,9.54,0,0,1,92,93.89a14.35,14.35,0,0,1-1.21-2.33,18.62,18.62,0,0,1-1.27-6.23A11.67,11.67,0,0,1,93.7,76a12.87,12.87,0,0,1,4.14-2.33,14,14,0,0,1,4.54-.78,11.82,11.82,0,0,1,4.87,1,12.25,12.25,0,0,1,3.94,2.78,12.9,12.9,0,0,1,2.63,4.18,13.94,13.94,0,0,1,1,5.17,20.74,20.74,0,0,1-1.34,5.34,17.56,17.56,0,0,1-1.08,2.17,13.84,13.84,0,0,1-1.49,2.07,10.54,10.54,0,0,1-2,1.77,10.25,10.25,0,0,1-2.59,1.27l.34-2.35a13,13,0,0,1,3.9,1.19,13.65,13.65,0,0,1,3,2,12.35,12.35,0,0,1,2.15,2.5,16.66,16.66,0,0,1,1.44,2.74A22.11,22.11,0,0,1,118.66,111.87Zm-7.17,1.19a24.37,24.37,0,0,0-.78-6.85,10.7,10.7,0,0,0-2-4,6.08,6.08,0,0,0-2.78-1.89,10.23,10.23,0,0,0-3-.47,9.54,9.54,0,0,0-3,.52,6.88,6.88,0,0,0-2.89,2,11,11,0,0,0-2.17,4,22,22,0,0,0-.84,6.68,17.82,17.82,0,0,0,.84,5.75A13.59,13.59,0,0,0,97,122.93a9.21,9.21,0,0,0,2.89,2.48,6.51,6.51,0,0,0,3,.82,7.41,7.41,0,0,0,3-.67,7.52,7.52,0,0,0,2.78-2.2,12,12,0,0,0,2-4.07A21.38,21.38,0,0,0,111.49,113.06Zm-3-26.8a13.47,13.47,0,0,0-.54-4,8.68,8.68,0,0,0-1.44-2.84,6.06,6.06,0,0,0-2-1.68,5,5,0,0,0-2.28-.56,5.88,5.88,0,0,0-2.28.47,5.25,5.25,0,0,0-2,1.55A8.21,8.21,0,0,0,96.5,82,14.53,14.53,0,0,0,96,86.26a11.83,11.83,0,0,0,.54,3.68,9.75,9.75,0,0,0,1.44,2.86,7.1,7.1,0,0,0,2,1.87,4.38,4.38,0,0,0,2.28.67,4.67,4.67,0,0,0,2.28-.62,6.56,6.56,0,0,0,2-1.77A9.18,9.18,0,0,0,108,90.08,12.59,12.59,0,0,0,108.5,86.26Z"/><path class="cls-2" d="M131.35,82.61a9.4,9.4,0,0,1-.4,2.79,8,8,0,0,1-1.09,2.27,5.51,5.51,0,0,1-1.58,1.52,3.49,3.49,0,0,1-1.87.55,3.54,3.54,0,0,1-1.88-.55,5.45,5.45,0,0,1-1.59-1.52,8,8,0,0,1-1.09-2.27,9.38,9.38,0,0,1-.4-2.79q0-3.68,1.25-5.41a4.28,4.28,0,0,1,3.71-1.73,4.23,4.23,0,0,1,3.75,1.73A9.72,9.72,0,0,1,131.35,82.61Zm-2.76,0a19,19,0,0,0-.13-2.43,6,6,0,0,0-.4-1.61,2.06,2.06,0,0,0-.69-.9,1.65,1.65,0,0,0-1-.28,1.53,1.53,0,0,0-.92.29,2.17,2.17,0,0,0-.67.95,6.87,6.87,0,0,0-.41,1.69,19,19,0,0,0-.14,2.51,12.46,12.46,0,0,0,.14,1.93,7,7,0,0,0,.42,1.59,3.28,3.28,0,0,0,.69,1.09,1.2,1.2,0,0,0,1.81,0,3.39,3.39,0,0,0,.69-1.13,8,8,0,0,0,.44-1.67A12.67,12.67,0,0,0,128.58,82.61ZM128.13,100l-2.35-.37L137.22,74l2.59.85Zm16.06-7.77a9.6,9.6,0,0,1-.4,2.82,8,8,0,0,1-1.09,2.29,5.44,5.44,0,0,1-1.59,1.52,3.55,3.55,0,0,1-1.88.56,3.49,3.49,0,0,1-1.87-.56,5.49,5.49,0,0,1-1.58-1.52,8,8,0,0,1-1.09-2.29,9.59,9.59,0,0,1-.4-2.82,9.26,9.26,0,0,1,1.25-5.39,4.89,4.89,0,0,1,7.45,0A9.59,9.59,0,0,1,144.19,92.28Zm-2.76,0a18.82,18.82,0,0,0-.13-2.41,5.61,5.61,0,0,0-.41-1.6,2,2,0,0,0-.7-.88,1.7,1.7,0,0,0-1-.27,1.52,1.52,0,0,0-.91.28,2.13,2.13,0,0,0-.66.92,6.67,6.67,0,0,0-.41,1.67,18.89,18.89,0,0,0-.14,2.52,12.82,12.82,0,0,0,.14,2,7,7,0,0,0,.42,1.6,3.28,3.28,0,0,0,.67,1.08,1.23,1.23,0,0,0,.89.39,1.27,1.27,0,0,0,.91-.41,3.27,3.27,0,0,0,.7-1.13,8.06,8.06,0,0,0,.44-1.68A13,13,0,0,0,141.42,92.28Z"/><polygon class="cls-3" points="160.37 34.58 161.76 34.94 162.84 34 162.93 35.43 164.16 36.17 162.82 36.69 162.5 38.09 161.59 36.98 160.16 37.11 160.93 35.9 160.37 34.58"/><polygon class="cls-3" points="154 15.36 155.38 15.72 156.47 14.78 156.55 16.21 157.78 16.95 156.45 17.47 156.13 18.87 155.22 17.76 153.79 17.89 154.56 16.68 154 15.36"/><polygon class="cls-4" points="141.9 24.52 144.68 25.23 146.84 23.35 147.02 26.22 149.49 27.7 146.81 28.75 146.17 31.55 144.34 29.33 141.48 29.58 143.02 27.16 141.9 24.52"/><polygon class="cls-5" points="138.84 48.04 143.41 47.23 145.33 43.01 147.51 47.1 152.12 47.62 148.9 50.96 149.83 55.51 145.66 53.48 141.62 55.77 142.26 51.17 138.84 48.04"/><polygon class="cls-3" points="134.19 17 132.84 17.48 132.47 18.86 131.59 17.72 130.16 17.8 130.97 16.62 130.46 15.28 131.84 15.68 132.95 14.78 132.99 16.22 134.19 17"/><polygon class="cls-5" points="130.3 30.48 126.96 33.7 127.73 38.28 123.63 36.1 119.51 38.24 120.32 33.67 117.01 30.42 121.6 29.77 123.67 25.62 125.71 29.79 130.3 30.48"/></g></svg>