<svg xmlns="http://www.w3.org/2000/svg" viewBox="0 0 188.01 127.42"><defs><style>.cls-1,.cls-6{fill:#fff;}.cls-1,.cls-3,.cls-4,.cls-8{stroke:#f26935;}.cls-1,.cls-3,.cls-4,.cls-6,.cls-8{stroke-linecap:round;stroke-linejoin:round;}.cls-1{stroke-width:3.42px;}.cls-2,.cls-3,.cls-4{fill:#f26739;}.cls-3{stroke-width:1.43px;}.cls-4{stroke-width:3.21px;}.cls-5{fill:#00b8b5;}.cls-6{stroke:#00b8b5;stroke-width:2.28px;}.cls-7{fill:#663695;}.cls-8{fill:#f26935;stroke-width:1.06px;}</style></defs><title>icon-collage</title><g id="Layer_1" data-name="Layer 1"><path class="cls-1" d="M58.53,121.5,60.6,99.09a2.65,2.65,0,0,0-1-2.3L42.2,82.57a2.69,2.69,0,0,1,1.13-4.7L65.45,72.7a2.74,2.74,0,0,0,1.92-1.64l8.41-21a2.73,2.73,0,0,1,4.85-.42L92.23,68.9a2.68,2.68,0,0,0,2.15,1.29L117,71.46a2.67,2.67,0,0,1,1.86,4.43l-14.95,17a2.68,2.68,0,0,0-.59,2.44l5.58,21.74a2.73,2.73,0,0,1-3.7,3.16L84.38,111.6a2.74,2.74,0,0,0-2.52.22L62.68,124A2.69,2.69,0,0,1,58.53,121.5Z"/><path class="cls-2" d="M66.15,110.55l1.32-14.36a2,2,0,0,0-.74-1.77L55.55,85.31a2.07,2.07,0,0,1,.87-3.62L70.6,78.38a2.11,2.11,0,0,0,1.48-1.26l5.39-13.43a2.1,2.1,0,0,1,3.73-.33l7.44,12.31a2.07,2.07,0,0,0,1.66,1l14.5.81a2.05,2.05,0,0,1,1.43,3.42L96.66,91.81a2.07,2.07,0,0,0-.45,1.88l3.58,13.93a2.1,2.1,0,0,1-2.85,2.44L83.57,104.5a2.11,2.11,0,0,0-1.94.17l-12.3,7.8A2.07,2.07,0,0,1,66.15,110.55Z"/><polygon class="cls-3" points="25.36 40.92 27.52 41.42 29.15 39.93 29.34 42.13 31.26 43.23 29.23 44.09 28.78 46.26 27.33 44.59 25.14 44.83 26.28 42.94 25.36 40.92"/><polygon class="cls-4" points="49.04 4.6 53.88 5.72 57.54 2.37 57.97 7.32 62.29 9.77 57.72 11.71 56.72 16.57 53.47 12.82 48.53 13.37 51.09 9.12 49.04 4.6"/><path class="cls-5" d="M46.56,34a11.57,11.57,0,0,1,2.59-5c1.43-1.54,4.34-3.56,6.36-1.75,4.23,3.79-7.89,5.72-9.63,5.84-.9.06-.91,1.47,0,1.41,3.09-.21,15.61-2.23,11-7.84-1.67-2-4.44-1.7-6.49-.49a12.05,12.05,0,0,0-5.19,7.44A.71.71,0,0,0,46.56,34Z"/><path class="cls-5" d="M62.59,67.23c-5.06-.7-9.37-4.74-9.57-10-.18-4.72,4.24-12.72,10-9.88V46.13a11.8,11.8,0,0,1-12.39-.53c-3.8-2.63-5-7.23-4.11-11.6a.71.71,0,0,0-.68-.89c-7.55.48-16.14-2.83-19.52-10a14.38,14.38,0,0,1-.63-10.23,12.39,12.39,0,0,1,2.58-4.64,10.25,10.25,0,0,1,2.28-1.91,8.13,8.13,0,0,1,1.89-.87q2.79-1.13,1.85,2.77c-.77-.49-1.48.73-.71,1.22a2.66,2.66,0,0,0,4-1.71c.35-1.85-1.31-3.45-3-3.8C29.18,2.77,24.87,9.55,24,14.05c-2.5,12.78,10.4,21.21,21.89,20.47l-.68-.89c-1,4.73.22,9.69,4.15,12.74a13.21,13.21,0,0,0,14.42,1,.71.71,0,0,0,0-1.22c-5.92-2.9-11.31,3.6-12.05,9A12.14,12.14,0,0,0,62.21,68.59c.89.12,1.27-1.23.37-1.36Z"/><path class="cls-6" d="M130.9,112.23l-8.47-14.08a2,2,0,0,0-1.56-.95l-16.41-1a2,2,0,0,1-1.36-3.25l10.78-12.41a2,2,0,0,0,.42-1.78l-4.12-15.91a2,2,0,0,1,2.67-2.3L128,67a2,2,0,0,0,1.82-.15L143.66,58a2,2,0,0,1,3,1.83l-1.42,16.38a2,2,0,0,0,.71,1.69l12.68,10.46a2,2,0,0,1-.81,3.43l-16,3.71a2,2,0,0,0-1.38,1.19l-6,15.29A2,2,0,0,1,130.9,112.23Z"/><path class="cls-7" d="M130.64,102.55l-5.43-9a1.51,1.51,0,0,0-1.2-.73l-10.51-.64a1.51,1.51,0,0,1-1.05-2.5l6.91-8a1.51,1.51,0,0,0,.32-1.37L117,70.13a1.51,1.51,0,0,1,2.06-1.77l9.7,4.11a1.51,1.51,0,0,0,1.4-.12l8.88-5.66a1.51,1.51,0,0,1,2.32,1.41l-.91,10.49a1.51,1.51,0,0,0,.55,1.3l8.13,6.7a1.51,1.51,0,0,1-.62,2.64l-10.26,2.38a1.51,1.51,0,0,0-1.07.92l-3.86,9.8A1.51,1.51,0,0,1,130.64,102.55Z"/><path class="cls-6" d="M126,64.12l-14.85-7.06a2,2,0,0,0-1.83.07L95.1,65.36a2,2,0,0,1-2.93-2l2.12-16.3a2,2,0,0,0-.63-1.71l-12.22-11a2,2,0,0,1,1-3.39l16.16-3A2,2,0,0,0,100,26.86l6.67-15a2,2,0,0,1,3.52-.14L118,26.13a2,2,0,0,0,1.52,1l16.35,1.71a2,2,0,0,1,1.22,3.3L125.83,44.1a2,2,0,0,0-.49,1.76l3.43,16.08A2,2,0,0,1,126,64.12Z"/><path class="cls-5" d="M120.44,56.19l-9.51-4.52a1.51,1.51,0,0,0-1.41.06L100.4,57a1.51,1.51,0,0,1-2.26-1.51L99.5,45.05A1.51,1.51,0,0,0,99,43.73l-7.83-7a1.51,1.51,0,0,1,.73-2.61l10.35-1.93a1.51,1.51,0,0,0,1.11-.87l4.28-9.63a1.51,1.51,0,0,1,2.71-.11l5,9.25a1.51,1.51,0,0,0,1.17.78L127,32.66A1.51,1.51,0,0,1,128,35.2l-7.24,7.65a1.51,1.51,0,0,0-.38,1.36l2.2,10.3A1.51,1.51,0,0,1,120.44,56.19Z"/><polygon class="cls-8" points="65.4 37.51 63.89 36.88 62.51 37.77 62.65 36.14 61.38 35.11 62.97 34.73 63.55 33.2 64.41 34.6 66.04 34.69 64.98 35.93 65.4 37.51"/></g></svg>