<svg xmlns="http://www.w3.org/2000/svg" viewBox="0 0 188.01 127.42"><defs><style>.cls-1{fill:#663695;}.cls-1,.cls-2{stroke:#00b8b5;}.cls-1,.cls-2,.cls-3,.cls-4,.cls-5,.cls-6,.cls-7,.cls-8,.cls-9{stroke-linecap:round;stroke-linejoin:round;}.cls-1,.cls-2,.cls-7{stroke-width:2.69px;}.cls-2{fill:#fff;}.cls-3,.cls-4{fill:#f26935;}.cls-3,.cls-4,.cls-5,.cls-6,.cls-7,.cls-8,.cls-9{stroke:#f26935;}.cls-3,.cls-5{stroke-width:0.83px;}.cls-4,.cls-6{stroke-width:1.66px;}.cls-5,.cls-6{fill:#f26739;}.cls-7,.cls-9{fill:#f26738;}.cls-8{fill:#f16837;stroke-width:0.9px;}.cls-9{stroke-width:1.8px;}.cls-10{fill:#00b8b5;}</style></defs><title>icon-share</title><g id="Layer_1" data-name="Layer 1"><path class="cls-1" d="M3.92,119.15,29.19,67.74H155.91l27.7,51.41H99c1.74,5.05-11.82,4.69-10.21,0Z"/><path class="cls-2" d="M20.88,110.25,42.76,60.12s37.14-10.52,51,7.62v49.13S58.28,92.56,20.88,110.25Z"/><path class="cls-2" d="M166.65,110.25,144.77,60.12s-37.14-10.52-51,7.62v49.13S129.25,92.56,166.65,110.25Z"/><path class="cls-2" d="M93.76,116.87V67.74S107.9,40,134.09,49c7.37,20.77,17.61,48.16,17.61,48.16S116.78,84.06,93.76,116.87Z"/><path class="cls-2" d="M93.76,116.87V67.74S79.62,40,53.44,49C46.06,69.76,35.83,97.15,35.83,97.15S70.75,84.06,93.76,116.87Z"/><polygon class="cls-3" points="103.38 47.68 102.19 47.19 101.11 47.88 101.22 46.6 100.22 45.79 101.47 45.5 101.93 44.3 102.6 45.39 103.89 45.46 103.05 46.44 103.38 47.68"/><polygon class="cls-3" points="141.96 33.53 140.77 33.03 139.69 33.73 139.8 32.45 138.8 31.64 140.05 31.34 140.51 30.14 141.18 31.24 142.47 31.31 141.63 32.28 141.96 33.53"/><polygon class="cls-3" points="38.99 26.35 37.8 25.85 36.72 26.55 36.83 25.27 35.83 24.46 37.08 24.16 37.54 22.96 38.21 24.06 39.49 24.13 38.66 25.1 38.99 26.35"/><polygon class="cls-4" points="114.02 36.29 111.65 35.3 109.49 36.7 109.69 34.13 107.69 32.51 110.2 31.91 111.13 29.51 112.47 31.71 115.04 31.85 113.36 33.8 114.02 36.29"/><polygon class="cls-4" points="130.63 23.23 128.25 22.24 126.09 23.64 126.29 21.07 124.3 19.45 126.8 18.85 127.73 16.45 129.07 18.64 131.64 18.78 129.97 20.74 130.63 23.23"/><polygon class="cls-4" points="59.98 38.72 57.6 37.73 55.44 39.13 55.65 36.56 53.65 34.94 56.15 34.34 57.08 31.94 58.42 34.13 60.99 34.27 59.32 36.23 59.98 38.72"/><polygon class="cls-5" points="70.89 64.29 70.02 63.35 68.75 63.53 69.37 62.41 68.8 61.26 70.06 61.51 70.98 60.61 71.14 61.89 72.28 62.48 71.11 63.02 70.89 64.29"/><polygon class="cls-6" points="83.84 81.43 82.08 79.54 79.54 79.92 80.79 77.67 79.65 75.36 82.17 75.86 84.01 74.06 84.32 76.61 86.6 77.81 84.27 78.89 83.84 81.43"/><polygon class="cls-7" points="115.14 72.88 111.3 71.29 107.81 73.55 108.14 69.4 104.92 66.78 108.96 65.81 110.46 61.94 112.63 65.48 116.78 65.71 114.07 68.87 115.14 72.88"/><polygon class="cls-8" points="89.97 51.77 89.81 50.38 88.59 49.73 89.86 49.15 90.1 47.78 91.04 48.81 92.42 48.62 91.73 49.83 92.34 51.09 90.97 50.8 89.97 51.77"/><polygon class="cls-9" points="78.93 30.37 78.62 27.59 76.16 26.27 78.7 25.12 79.19 22.38 81.08 24.44 83.84 24.06 82.46 26.48 83.67 29 80.94 28.43 78.93 30.37"/><path class="cls-10" d="M96.3,23.15A7.91,7.91,0,0,1,92,22.42c-1.24-.63-2.86-2-2.18-3.57,1.49-3.41,5.43,3.68,6,5,.25.57,1.08.08.84-.49-.85-2-5.2-9.7-7.66-5.15-.84,1.56,0,3.22,1.29,4.25a8.32,8.32,0,0,0,6,1.64C96.92,24.07,96.93,23.1,96.3,23.15Z"/><path class="cls-10" d="M114.21,5.21c.66,3.61-1.2,7.52-4.88,8.6-3.14.93-8.55-.33-8.17-4.56l-.83.34a7.72,7.72,0,0,1-4.16,13.56.49.49,0,0,0-.34.6c1.9,4.68,1.94,10.76-1.71,14.67a9.86,9.86,0,0,1-6.21,3,9,9,0,0,1-3.71-.36A6.77,6.77,0,0,1,82.08,40a3,3,0,0,1-.89-.85Q79.82,38,82.29,37c-.09.61.85.88.94.26a1.84,1.84,0,0,0-2.74-2c-1.73,1-1.1,3.33-.06,4.57,3.72,4.42,11.2,3,14.62-.95a13.37,13.37,0,0,0,3-8.08,16.53,16.53,0,0,0-.42-4.55c-.1-.45-.77-1.86-.53-2.21a14.39,14.39,0,0,1,2.07-.66C105,20.73,105.56,13,101,8.92a.49.49,0,0,0-.83.34c-.4,4.49,5,6.47,8.69,5.68a8.42,8.42,0,0,0,6.27-10c-.11-.61-1-.35-.94.26Z"/></g></svg>